<?xml version="1.0" encoding="UTF-8" standalone="no"?><svg xmlns="http://www.w3.org/2000/svg" xmlns:xlink="http://www.w3.org/1999/xlink" fill="#fbfbfb" height="63.9" preserveAspectRatio="xMidYMid meet" version="1" viewBox="5.0 13.6 79.9 63.9" width="79.9" zoomAndPan="magnify"><g id="change1_1"><path clip-rule="evenodd" d="M35.42,32.714h4.656c1.485,0.787,3.131,1.359,4.923,1.359 c1.796,0,3.443-0.572,4.927-1.359h4.656c-1.88,1.817-3.339,4.353-3.339,7.197v12.224c0,0.041,0.005,0.079,0.011,0.12l2.292,21.073 c0.036,0.301,0,0.312-0.203,0.457c-0.209,0.147-0.657,0.292-1.163,0.292c-0.504-0.005-1.047-0.145-1.416-0.359 c-0.369-0.215-0.547-0.443-0.609-0.745l-3.229-15.287c-0.088-0.421-0.219-0.849-0.547-1.197c-0.328-0.349-0.844-0.595-1.38-0.595 c-0.532,0-1.052,0.245-1.376,0.595c-0.328,0.348-0.457,0.776-0.547,1.197l-3.229,15.287c-0.061,0.303-0.239,0.531-0.609,0.745 c-0.369,0.213-0.916,0.353-1.421,0.359c-0.5,0-0.953-0.145-1.156-0.292c-0.208-0.145-0.24-0.156-0.208-0.457l2.296-21.073 c0.005-0.041,0.005-0.079,0.005-0.12V39.911C38.753,37.067,37.294,34.531,35.42,32.714z M72.17,32.406 c0.615,0.005,1.119,0.469,1.567,1.261l8.719,15.385c0.188,0.369,0.177,0.615,0.095,0.833c-0.084,0.224-0.281,0.421-0.532,0.567 c-0.583,0.339-1.249,0.105-1.828-0.713l-5.869-8.291c-0.693-0.98-2.235-0.355-2.047,0.833L73.9,52.286l2.285,21.043 c0.037,0.307,0,0.317-0.197,0.457c-0.199,0.141-0.645,0.287-1.145,0.281c-0.5-0.005-1.037-0.135-1.417-0.353l-0.64-0.765 l-3.219-13.62c-0.1-0.428-0.22-0.865-0.548-1.213c-0.328-0.349-0.848-0.6-1.38-0.6c-0.536,0-1.052,0.251-1.38,0.6 c-0.328,0.348-0.495,0.78-0.547,1.213l-1.62,13.749c-0.151,1.265-3.249,1.313-3.359,0.063l0.656-19.344 c0-0.052-0.005-0.099-0.011-0.145L59.764,36.99c-0.063-0.584-0.547-1.021-1.131-1.021h-3.801c0.973-1.339,2.145-2.729,3.812-3.255 h2.448c1.484,0.781,3.131,1.359,4.921,1.359c2.016,0,3.819-0.744,5.5-1.511C71.748,32.452,71.961,32.406,72.17,32.406z M17.832,32.406c0.203,0,0.421,0.047,0.651,0.156c1.683,0.767,3.489,1.511,5.5,1.511c1.797,0,3.443-0.577,4.927-1.359h2.443 c1.667,0.525,2.844,1.916,3.813,3.255h-3.797c-0.583,0-1.073,0.437-1.131,1.021l-1.615,16.661c-0.009,0.047-0.009,0.093-0.009,0.145 l0.656,19.344c-0.115,1.251-3.208,1.203-3.36-0.063l-1.624-13.749c-0.048-0.433-0.219-0.865-0.548-1.213 c-0.323-0.349-0.843-0.6-1.375-0.6c-0.536,0-1.057,0.251-1.38,0.6c-0.328,0.348-0.448,0.785-0.547,1.213l-3.219,13.62l-0.647,0.765 c-0.375,0.219-0.916,0.348-1.416,0.353c-0.5,0.005-0.943-0.14-1.141-0.281c-0.203-0.14-0.233-0.151-0.203-0.457l2.287-21.043 l1.625-10.004c0.192-1.188-1.349-1.813-2.043-0.833L9.81,49.739c-0.583,0.819-1.244,1.052-1.828,0.713 c-0.255-0.145-0.453-0.343-0.531-0.567c-0.084-0.219-0.095-0.464,0.093-0.833l8.719-15.385 C16.712,32.875,17.217,32.411,17.832,32.406z M17.857,30.146c-0.583,0.016-1.145,0.177-1.604,0.427 c-0.911,0.5-1.557,1.251-1.968,1.975L5.561,47.952c-0.521,0.917-0.443,1.912-0.24,2.715c0.213,0.833,0.907,1.427,1.635,1.801 c1.459,0.745,3.568,0.355,4.735-1.464l3.005-4.249l-0.839,5.197l-2.296,21.131c-0.115,1.041,0.405,2.027,1.135,2.547 c0.735,0.521,1.604,0.708,2.475,0.704c0.864-0.005,1.749-0.209,2.531-0.657c0.787-0.448,1.484-1.197,1.719-2.208 c0.948-4.005,2.407-10.187,2.839-12.016l1.401,11.891c0.484,4.1,8.025,4.073,7.885-0.057l-0.667-19.489l1.516-15.563h3.839 c0.197,0.62,0.208,1.219,0.255,1.771v12.063l-2.287,21.016c-0.115,1.041,0.417,2.036,1.151,2.557 c0.735,0.521,1.609,0.703,2.48,0.703c0.869-0.005,1.755-0.203,2.541-0.656c0.781-0.459,1.484-1.229,1.697-2.244l2.928-13.912 l2.932,13.912c0.213,1.015,0.912,1.785,1.697,2.244c0.781,0.453,1.667,0.651,2.543,0.656c0.869,0,1.744-0.181,2.479-0.703 c0.735-0.521,1.26-1.516,1.151-2.557l-2.291-21.016V40.004c0.047-0.552,0.061-1.151,0.26-1.771h3.839l1.515,15.563l-0.667,19.489 c-0.14,4.131,7.401,4.157,7.887,0.057l1.4-11.891c0.433,1.829,1.891,8.011,2.833,12.016c0.24,1.011,0.937,1.76,1.719,2.208 c0.787,0.448,1.667,0.652,2.537,0.657c0.864,0.004,1.739-0.183,2.468-0.704c0.735-0.52,1.251-1.505,1.141-2.547l-2.297-21.131 L75.3,46.755l3.005,4.249c1.167,1.819,3.281,2.209,4.74,1.464c0.729-0.375,1.421-0.968,1.631-1.801 c0.208-0.803,0.285-1.797-0.235-2.715l-8.724-15.405c-0.412-0.724-1.057-1.475-1.975-1.975c-0.457-0.249-1.015-0.411-1.604-0.427 c-0.583-0.016-1.203,0.12-1.776,0.459c-1.26,0.744-2.765,1.192-4.349,1.192c-1.588,0-3.099-0.437-4.337-1.187 c-0.177-0.105-0.381-0.161-0.584-0.161H49.925c-0.208,0-0.416,0.056-0.593,0.161c-1.24,0.749-2.74,1.187-4.333,1.187 c-1.589,0-3.095-0.437-4.328-1.187c-0.183-0.105-0.385-0.161-0.595-0.161H28.909c-0.208,0-0.411,0.056-0.583,0.161 c-1.24,0.749-2.751,1.187-4.344,1.187c-1.583,0-3.083-0.448-4.344-1.192C19.061,30.266,18.446,30.13,17.857,30.146z" fill-rule="evenodd"/></g><g id="change1_2"><path clip-rule="evenodd" d="M23.982,15.848c3.307,0,5.781,2.209,5.781,4.767v2.421 c0,2.563-2.475,4.771-5.781,4.771s-5.771-2.208-5.771-4.771v-2.421C18.212,18.058,20.676,15.848,23.982,15.848z M23.982,13.572 c-4.349,0-8.036,3.057-8.036,7.043v2.421c0,3.984,3.687,7.036,8.036,7.036s8.047-3.052,8.047-7.036v-2.421 C32.029,16.63,28.332,13.572,23.982,13.572z" fill-rule="evenodd"/></g><g id="change1_3"><path clip-rule="evenodd" d="M65.884,15.848c3.307,0,5.771,2.209,5.771,4.767v2.421 c0,2.563-2.464,4.771-5.771,4.771c-3.308,0-5.781-2.208-5.781-4.771v-2.421C60.102,18.058,62.576,15.848,65.884,15.848z M65.884,13.572c-4.349,0-8.047,3.057-8.047,7.043v2.421c0,3.984,3.697,7.036,8.047,7.036s8.036-3.052,8.036-7.036v-2.421 C73.92,16.63,70.233,13.572,65.884,13.572z" fill-rule="evenodd"/></g><g id="change1_4"><path clip-rule="evenodd" d="M44.998,15.848c3.312,0,5.781,2.209,5.781,4.767v2.421 c0,2.563-2.469,4.771-5.781,4.771c-3.308,0-5.771-2.208-5.771-4.771v-2.421C39.228,18.058,41.69,15.848,44.998,15.848z M44.998,13.572c-4.344,0-8.037,3.057-8.037,7.043v2.421c0,3.984,3.693,7.036,8.037,7.036c4.348,0,8.047-3.052,8.047-7.036v-2.421 C53.045,16.63,49.346,13.572,44.998,13.572z" fill-rule="evenodd"/></g></svg>