<?xml version="1.0" encoding="UTF-8" standalone="no"?><svg xmlns="http://www.w3.org/2000/svg" xmlns:xlink="http://www.w3.org/1999/xlink" data-name="Layer 1" fill="#fbfbfb" height="82.4" preserveAspectRatio="xMidYMid meet" version="1" viewBox="6.9 12.7 96.4 82.4" width="96.4" zoomAndPan="magnify"><g id="change1_1"><path d="M55.424,95.121a8.035,8.035,0,0,1-4.367-1.3.748.748,0,0,1-.079-.056c-.032-.02-.065-.043-.1-.067v0A181.184,181.184,0,0,1,32.262,78.882l-1.009-.948c-.776-.728-1.56-1.461-2.315-2.217-1.033-1.033-2.087-2.1-3.12-3.154a1,1,0,0,1-.077-1.31l3.519-4.561a1,1,0,0,1,1.687.165l2.286,4.583A1.181,1.181,0,0,0,34.3,72.1h6.111a1,1,0,0,1,.951.689L43.711,80a1.205,1.205,0,0,0,1.409.778A1.178,1.178,0,0,0,46,79.762l4.311-33.95a1,1,0,0,1,.963-.874,1.015,1.015,0,0,1,1.012.819L58.25,78.02a1.184,1.184,0,0,0,2.312.06l1.21-5.014a1,1,0,0,1,.972-.765h6.6a1.156,1.156,0,0,0,.925-.456l5.889-7.6a1,1,0,0,1,1.609.039l5.4,7.706a1.172,1.172,0,0,0,.368.341,1,1,0,0,1,.2,1.548c-.211.22-.428.433-.643.646l-.3.3c-1.115,1.126-2.2,2.158-3.21,3.119a23.8,23.8,0,0,1-1.769,1.617c-2.8,2.546-5.914,5.165-9.494,7.972-2.9,2.28-5.862,4.472-8.347,6.172l-.077.049a1.1,1.1,0,0,1-.095.069A8.081,8.081,0,0,1,55.424,95.121Zm4.615-1.516h0ZM52.2,92.174a6.01,6.01,0,0,0,6.449.012,1.178,1.178,0,0,1,.229-.152c2.487-1.708,5.378-3.847,8.209-6.076,3.543-2.778,6.623-5.364,9.417-7.908a22.538,22.538,0,0,0,1.679-1.533c1.028-.975,2.1-2,3.2-3.1l.2-.2-.054-.075-4.616-6.592-5.054,6.52a3.18,3.18,0,0,1-2.51,1.237H63.531l-1.025,4.248a3.168,3.168,0,0,1-3.089,2.429,3.216,3.216,0,0,1-3.132-2.589l-4.8-25.956-3.5,27.591a3.191,3.191,0,0,1-2.456,2.707,3.425,3.425,0,0,1-.709.08,3.162,3.162,0,0,1-3.01-2.2L39.681,74.1H34.3a3.172,3.172,0,0,1-2.852-1.764l-1.574-3.156-2.013,2.607c.831.846,1.671,1.693,2.5,2.518.74.74,1.507,1.459,2.268,2.171l1.005.945a179.211,179.211,0,0,0,18.4,14.638l.014.009A1.41,1.41,0,0,1,52.2,92.174Z" fill="inherit"/></g><g id="change1_2"><path d="M43.88,70.827a1,1,0,0,1-.866-.5,1.167,1.167,0,0,0-1.023-.586h-6.36a1,1,0,0,1-.9-.552l-3.247-6.5a1.162,1.162,0,0,0-1.974-.2L24.349,69.2a1.006,1.006,0,0,1-.762.39,1.018,1.018,0,0,1-.784-.343C13.937,59.077,9.441,49.662,9.441,41.265A26.366,26.366,0,0,1,55.423,23.632a26.391,26.391,0,0,1,19.644-8.749,25.814,25.814,0,0,1,15.265,4.9c.672.472,1.282.977,1.872,1.465.323.274.637.54.952.855.455.455.909.91,1.316,1.364a27.525,27.525,0,0,1,3.917,5.5l.27.562c.225.465.458.946.652,1.473a13.529,13.529,0,0,1,.772,2.017,19.765,19.765,0,0,1,.768,2.994,14.189,14.189,0,0,1,.405,2.593,21.93,21.93,0,0,1,.148,2.658,25.625,25.625,0,0,1-.411,4.45,8.67,8.67,0,0,1-.2,1.006l-.051.22c-.1.539-.25,1.1-.408,1.663a42.825,42.825,0,0,1-4.08,9.365c-.159.255-.3.487-.439.719-.2.337-.408.676-.617,1-1.079,1.738-2.376,3.59-4.074,5.813-.328.427-.678.851-1.021,1.266l-.513.624c-.362.461-.751.908-1.15,1.367L88,69.268c-.145.177-.318.376-.491.562a1,1,0,0,1-.732.318H85.264a1,1,0,0,1-.82-.426L78.005,60.51a1.2,1.2,0,0,0-.944-.5,1.261,1.261,0,0,0-.961.471l-7.032,9.078a1,1,0,0,1-.79.387H61.036a1.183,1.183,0,0,0-.548.125,1,1,0,0,1-1.443-.706L52.063,31.6a1.183,1.183,0,0,0-1.427-.937,1.307,1.307,0,0,0-.921,1.136L44.873,69.953a1,1,0,0,1-.8.855A1.1,1.1,0,0,1,43.88,70.827Zm41.9-2.679h.547c.046-.054.092-.108.136-.163l.467-.541c.377-.433.745-.856,1.1-1.3l.534-.652c.328-.4.664-.8.975-1.207,1.656-2.168,2.918-3.97,3.972-5.667.208-.321.4-.643.595-.963.146-.242.291-.482.437-.715a40.737,40.737,0,0,0,3.87-8.879c.142-.514.28-1.026.374-1.525l.063-.271a7.646,7.646,0,0,0,.164-.835,24.059,24.059,0,0,0,.389-4.164,20.831,20.831,0,0,0-.139-2.482A13.16,13.16,0,0,0,98.89,36.4a18,18,0,0,0-.7-2.727,11.768,11.768,0,0,0-.694-1.824c-.017-.036-.033-.073-.047-.11a13.69,13.69,0,0,0-.591-1.335L96.6,29.86a25.584,25.584,0,0,0-3.613-5.054c-.389-.434-.818-.862-1.246-1.29-.273-.273-.547-.5-.822-.736-.551-.457-1.129-.936-1.75-1.37a23.833,23.833,0,0,0-14.1-4.527A24.41,24.41,0,0,0,56.194,25.8a1.033,1.033,0,0,1-1.542,0A24.368,24.368,0,0,0,11.441,41.265c0,7.65,4.061,16.307,12.073,25.746l4.411-5.727a3.162,3.162,0,0,1,5.358.526l2.966,5.93h5.742a3.2,3.2,0,0,1,1.12.2l4.62-36.4A3.3,3.3,0,0,1,50.2,28.712a3.185,3.185,0,0,1,3.825,2.522l6.789,36.717c.072,0,.144-.007.218-.007h6.752l6.738-8.7a3.1,3.1,0,0,1,2.6-1.235,3.214,3.214,0,0,1,2.519,1.352Z" fill="inherit"/></g><g id="change1_3"><path d="M44.819,82.811a3.162,3.162,0,0,1-3.01-2.2L39.681,74.1H34.3a3.172,3.172,0,0,1-2.852-1.764l-1.574-3.156-2.983,3.871A3.171,3.171,0,0,1,24.36,74.3H10.294a3.263,3.263,0,0,1-3.251-2.665,3.173,3.173,0,0,1,3.138-3.692H22.794l5.131-6.66a3.162,3.162,0,0,1,5.358.526l2.966,5.93h5.742a3.2,3.2,0,0,1,1.12.2l4.62-36.4A3.3,3.3,0,0,1,50.2,28.712a3.185,3.185,0,0,1,3.825,2.522l6.789,36.717c.072,0,.144-.007.218-.007h6.752l6.738-8.7a3.1,3.1,0,0,1,2.6-1.235,3.214,3.214,0,0,1,2.519,1.352l6.141,8.786H99.816a3.176,3.176,0,0,1,2.267,5.409,3.221,3.221,0,0,1-2.267.948H84.132a3.212,3.212,0,0,1-2.61-1.369l-4.616-6.592-5.054,6.52a3.18,3.18,0,0,1-2.51,1.237H63.531l-1.025,4.248a3.168,3.168,0,0,1-3.089,2.429,3.216,3.216,0,0,1-3.132-2.589l-4.8-25.956-3.5,27.591a3.191,3.191,0,0,1-2.456,2.707A3.425,3.425,0,0,1,44.819,82.811ZM30.052,66.3c.032,0,.064,0,.1,0a1,1,0,0,1,.8.548l2.286,4.583A1.181,1.181,0,0,0,34.3,72.1h6.111a1,1,0,0,1,.951.689L43.711,80a1.205,1.205,0,0,0,1.409.778A1.178,1.178,0,0,0,46,79.762l4.311-33.95a1,1,0,0,1,.963-.874,1.015,1.015,0,0,1,1.012.819L58.25,78.02a1.184,1.184,0,0,0,2.312.06l1.21-5.014a1,1,0,0,1,.972-.765h6.6a1.156,1.156,0,0,0,.925-.456l5.889-7.6a1,1,0,0,1,1.609.039l5.4,7.706a1.214,1.214,0,0,0,.969.513H99.816A1.185,1.185,0,0,0,101,71.32a1.179,1.179,0,0,0-1.184-1.172H85.264a1,1,0,0,1-.82-.426L78.005,60.51a1.2,1.2,0,0,0-.944-.5,1.261,1.261,0,0,0-.961.471l-7.032,9.078a1,1,0,0,1-.79.387H61.036a1.183,1.183,0,0,0-.548.125,1,1,0,0,1-1.443-.706L52.063,31.6a1.183,1.183,0,0,0-1.427-.937,1.307,1.307,0,0,0-.921,1.136L44.873,69.953a1,1,0,0,1-1.859.373,1.167,1.167,0,0,0-1.023-.586h-6.36a1,1,0,0,1-.9-.552l-3.247-6.5a1.162,1.162,0,0,0-1.974-.2l-5.439,7.06a1,1,0,0,1-.791.387h-13.1a1.189,1.189,0,0,0-.906.419,1.159,1.159,0,0,0-.258.952,1.27,1.27,0,0,0,1.277.986H24.36a1.18,1.18,0,0,0,.939-.47l3.961-5.139A1,1,0,0,1,30.052,66.3Z" fill="inherit"/></g></svg>