<?xml version="1.0" encoding="UTF-8" standalone="no"?><svg xmlns="http://www.w3.org/2000/svg" xmlns:xlink="http://www.w3.org/1999/xlink" fill="#fbfbfb" height="63.6" preserveAspectRatio="xMidYMid meet" version="1" viewBox="5.6 2.2 56.7 63.6" width="56.7" zoomAndPan="magnify"><g id="change1_1"><path d="m61 35.2c.3.3.8.2 1.1-.1.2-.3.2-.8-.1-1-5.7-4.3-13.7-3.7-18.7 1.5-4.3-1.6-9.3-.6-13.3 1.7 2-6.9 4.7-14.2 11-18.1 2.4 1.2 5.2 1.7 7.8 2.6 1.2.4 2.6 1 3.8.5 1-.4 1.7-1.5 1.3-2.8 0-.3-.1-.6-.3-.9 1.7-.2 2.7-.8 2.9-1.9.2-.8 0-1.2-1.4-7.1-.3-1.3-.7-2.6-2-3.3-1.1-.5-2.2-.3-3.3 0-8.8 2.5-7.4 2.2-9.7 2.7-2 .4-4.2.9-5.5 2.2-3.9 3.8-7.7 7.8-11.5 11.7-5.7 5.8-11.5 11.8-15.6 19-.9 1.5-1.6 3.1-1.7 4.9-.2 1.8.4 3.7 1.6 5.1 3.1 3.8 8.5 4.1 12.8 4.8 4.4.7 8.8 2.1 13.2 2.3 4.2.3 8.6-.5 11.9-3.1.5 1.5 1.8 3.1 2.5 4 1.8 2.1 4.1 3.6 6.6 4.7.3.2 2 .6 3.2.9.5.2.7.3 1 .2.2 0 .1 0 .1-.1.5-.3.4-1.1-.1-1.3s-.9-.4-.8-.3c-.6-.4-1-.5-2.4-1.2-4.3-2.5-7.7-6.5-9.5-11.1-.1-.4-.6-.6-1-.4-.4.1-.6.6-.4 1s.3.8.5 1.2c-3.9 3.4-9.4 3.5-12.4 3.2-4.8-.4-9.5-2.1-15.5-3-2.1-.3-4-.6-5.8-1.4s-3.9-2.6-4-5.1c-.1-1.5.7-3 1.5-4.4 4-7 9.8-13 15.4-18.7 3.7-3.8 7.6-7.9 11.4-11.7 1.3-1.3 4.6-1.6 6.6-2.2l8-2.3c2.2-.6 2.9-.4 3.5 2.2 1.5 6 1.5 6 1.4 6.4-.2.6-1.3.8-1.9.8-1.7.1-3.6.2-4.5-1.3.7-.1 1.4-.2 2.1-.5 1.1-.4 1.4-1.2 1-2.3-.5-1.4-1-2.1-3.3-2.9-.3-.1-.6 0-.8.2-.5.5-1.2.9-1.8 1.1-.4.1-.6.5-.5.9s.5.6.9.5c.8-.2 1.5-.6 2.1-1.1 1.5.5 1.6.9 2 1.8 0 .1.1.3.1.3s-.1.1-.3.1c-.5.2-1.1.3-1.7.4.6-.9-.7-1.7-1.2-.9-1 1.5-.1 3.7 1.5 4.5.9.5 1.8.6 2.8.7.1 0 .1.1.2.1.4.2.6.7.5 1.1s-.6.8-1 .7c-.5 0-1-.4-1.6-.7-1.4-.8-3.1-.9-4.7-1.2-3.1-.5-3.4-1.1-4.6-2-.7-.6-1.2-1-1.2-1.5 0-.4-.3-.8-.7-.8-.4 0-.7.3-.8.7 0 .2 0 .4.1.5 0 .9.7 1.7 1.3 2.3.1.1.3.2.4.3-6.8 4.5-9.3 12.4-11.5 20.1v.2c-1.2 1-2.4 2.2-3.2 3.8-.2.4 0 .8.3 1 .4.2.8 0 1-.3 2.6-4.9 10.2-7.8 15.6-6.4 3 .7 5.5 2.8 6.5 5.4.1.4.6.6 1 .4.4-.1.6-.6.4-1-.9-2.2-2.6-4.1-4.9-5.3 4.7-4.4 11.5-4.6 16.3-1z"/><path d="m29.7 6.4c-.3.3-.2.8.1 1.1 2.7 2.1 2.7 2.3 3.1 2.3.7 0 1-.9.5-1.3l-2.7-2.2c-.2-.3-.7-.2-1 .1z"/><path d="m35.4 7.9c.4-.1.6-.5.5-.9l-1.2-4.2c-.1-.4-.5-.6-.9-.5s-.6.5-.5.9l1.2 4.2c0 .4.5.7.9.5z"/><path d="m39.9 6.3.2-2.3c0-.4-.3-.8-.7-.8s-.8.3-.8.7l-.2 2.3c0 .4.3.8.7.8s.8-.3.8-.7z"/></g></svg>