<?xml version="1.0" encoding="UTF-8" standalone="no"?><svg xmlns="http://www.w3.org/2000/svg" xmlns:xlink="http://www.w3.org/1999/xlink" fill="#000000" height="52" preserveAspectRatio="xMidYMid meet" version="1" viewBox="-1.5 4.0 63.1 52.0" width="63.1" zoomAndPan="magnify"><g id="change1_1"><path d="M 48.003906 29 L 46.003906 29 C 45.652344 29 45.316406 29.074219 45.003906 29.183594 L 45.003906 29 C 45.003906 27.34375 43.65625 26 42.003906 26 L 40.003906 26 C 38.347656 26 37.003906 27.34375 37.003906 29 L 37.003906 38 L 23.003906 38 L 23.003906 29 C 23.003906 27.34375 21.65625 26 20.003906 26 L 18.003906 26 C 16.347656 26 15.003906 27.34375 15.003906 29 L 15.003906 29.183594 C 14.6875 29.074219 14.355469 29 14.003906 29 L 12.003906 29 C 10.347656 29 9.003906 30.34375 9.003906 32 L 9.003906 32.902344 L 6.082031 29.949219 C 0.644531 24.433594 0.644531 15.480469 6.082031 9.984375 C 8.578125 7.453125 12.167969 6.003906 15.925781 6 C 15.925781 6 15.929688 6 15.929688 6 C 19.691406 6 23.28125 7.453125 25.78125 9.984375 L 29.289062 13.542969 C 29.476562 13.734375 29.734375 13.84375 30.003906 13.84375 C 30.269531 13.84375 30.527344 13.734375 30.714844 13.542969 L 34.234375 9.984375 C 36.730469 7.453125 40.3125 6.003906 44.070312 6 C 44.070312 6 44.074219 6 44.078125 6 C 47.839844 6 51.429688 7.453125 53.929688 9.984375 C 59.351562 15.476562 59.347656 24.433594 53.929688 29.949219 L 51.003906 32.914062 L 51.003906 32 C 51.003906 30.34375 49.65625 29 48.003906 29 Z M 54.003906 40 L 54.003906 42 L 51.003906 42 L 51.003906 40 Z M 49.003906 50 C 49.003906 50.550781 48.554688 51 48.003906 51 L 46.003906 51 C 45.453125 51 45.003906 50.550781 45.003906 50 L 45.003906 32 C 45.003906 31.449219 45.453125 31 46.003906 31 L 48.003906 31 C 48.554688 31 49.003906 31.449219 49.003906 32 Z M 43.003906 32 L 43.003906 53 C 43.003906 53.550781 42.554688 54 42.003906 54 L 40.003906 54 C 39.453125 54 39.003906 53.550781 39.003906 53 L 39.003906 29 C 39.003906 28.449219 39.453125 28 40.003906 28 L 42.003906 28 C 42.554688 28 43.003906 28.449219 43.003906 29 Z M 37.003906 42 L 23.003906 42 L 23.003906 40 L 37.003906 40 Z M 37.003906 47.078125 L 30.285156 53.882812 C 30.179688 53.984375 30.066406 54 30.003906 54 C 29.910156 54 29.828125 53.980469 29.734375 53.886719 L 23.003906 47.070312 L 23.003906 44 L 37.003906 44 Z M 21.003906 53 C 21.003906 53.550781 20.554688 54 20.003906 54 L 18.003906 54 C 17.453125 54 17.003906 53.550781 17.003906 53 L 17.003906 29 C 17.003906 28.449219 17.453125 28 18.003906 28 L 20.003906 28 C 20.554688 28 21.003906 28.449219 21.003906 29 Z M 15.003906 50 C 15.003906 50.550781 14.554688 51 14.003906 51 L 12.003906 51 C 11.453125 51 11.003906 50.550781 11.003906 50 L 11.003906 32 C 11.003906 31.449219 11.453125 31 12.003906 31 L 14.003906 31 C 14.554688 31 15.003906 31.449219 15.003906 32 Z M 9.003906 42 L 6.003906 42 L 6.003906 40 L 9.003906 40 Z M 55.355469 31.351562 C 61.535156 25.0625 61.535156 14.847656 55.351562 8.578125 C 52.476562 5.667969 48.367188 4 44.074219 4 C 44.074219 4 44.070312 4 44.070312 4 C 39.78125 4.003906 35.679688 5.671875 32.8125 8.578125 L 30.003906 11.417969 L 27.203125 8.578125 C 24.328125 5.667969 20.21875 4 15.929688 4 C 15.929688 4 15.925781 4 15.925781 4 C 11.636719 4.003906 7.527344 5.671875 4.660156 8.578125 C -1.542969 14.847656 -1.542969 25.0625 4.660156 31.351562 L 9.003906 35.75 L 9.003906 38 L 6.003906 38 C 4.898438 38 4.003906 38.898438 4.003906 40 L 4.003906 42 C 4.003906 43.101562 4.898438 44 6.003906 44 L 9.003906 44 L 9.003906 50 C 9.003906 51.65625 10.347656 53 12.003906 53 L 14.003906 53 C 14.355469 53 14.6875 52.925781 15.003906 52.816406 L 15.003906 53 C 15.003906 54.65625 16.347656 56 18.003906 56 L 20.003906 56 C 21.65625 56 23.003906 54.65625 23.003906 53 L 23.003906 49.914062 L 28.308594 55.289062 C 28.757812 55.746094 29.355469 55.996094 29.992188 56 C 29.996094 56 30 56 30.003906 56 C 30.644531 56 31.242188 55.75 31.703125 55.292969 L 37.003906 49.925781 L 37.003906 53 C 37.003906 54.65625 38.347656 56 40.003906 56 L 42.003906 56 C 43.65625 56 45.003906 54.65625 45.003906 53 L 45.003906 52.816406 C 45.316406 52.925781 45.652344 53 46.003906 53 L 48.003906 53 C 49.65625 53 51.003906 51.65625 51.003906 50 L 51.003906 44 L 54.003906 44 C 55.105469 44 56.003906 43.101562 56.003906 42 L 56.003906 40 C 56.003906 38.898438 55.105469 38 54.003906 38 L 51.003906 38 L 51.003906 35.761719 L 55.355469 31.351562" fill="#fbfbfb"/></g></svg>