<?xml version="1.0" encoding="UTF-8" standalone="no"?><svg xmlns="http://www.w3.org/2000/svg" xmlns:xlink="http://www.w3.org/1999/xlink" data-name="Layer 50" fill="#c9ef25" height="24" preserveAspectRatio="xMidYMid meet" version="1" viewBox="4.0 4.0 24.0 24.0" width="24" zoomAndPan="magnify"><g id="change1_1"><path d="M16,4A12,12,0,1,0,28,16,12,12,0,0,0,16,4ZM11,14.86a0.5,0.5,0,0,1,.46-0.31h1.78v-5a0.5,0.5,0,0,1,.5-0.5h4.57a0.5,0.5,0,0,1,.5.5v5h1.78a0.5,0.5,0,0,1,.35.85l-2.27,2.27,0,0L16.35,20a0.5,0.5,0,0,1-.35.15h0A0.5,0.5,0,0,1,15.64,20L13.37,17.7h0l-2.28-2.28A0.5,0.5,0,0,1,11,14.86ZM21.07,22.4a0.5,0.5,0,0,1-.5.5H11.43a0.5,0.5,0,0,1-.5-0.5v-1a0.5,0.5,0,0,1,.5-0.5h9.13a0.5,0.5,0,0,1,.5.5v1Z" fill="inherit"/></g></svg>