<?xml version="1.0" encoding="UTF-8" standalone="no"?><svg xmlns="http://www.w3.org/2000/svg" xmlns:xlink="http://www.w3.org/1999/xlink" fill="#fbfbfb" height="60" preserveAspectRatio="xMidYMid meet" version="1" viewBox="2.0 2.0 60.0 60.0" width="60" zoomAndPan="magnify"><g id="change1_1"><path d="M59,30c-1.767,0-3,0.788-3,1.915v3.438C54.417,32.224,51.981,30,49,30H21c-0.553,0-1,0.448-1,1v6v4.83 c-0.425-0.41-0.969-0.695-1.575-0.793C19.4,39.97,20,38.556,20,37c0-3.309-2.691-6-6-6s-6,2.691-6,6c0,1.55,0.596,2.96,1.564,4.026 C8.972,41.091,8.435,41.332,8,41.698V37V16.4C8,15.054,6.683,14,5,14s-3,1.054-3,2.4v43.2C2,60.946,3.317,62,5,62s3-1.054,3-2.4V53 h48v7.085C56,61.212,57.233,62,59,62s3-0.788,3-1.915v-28.17C62,30.788,60.767,30,59,30z M6,59.6C5.989,59.682,5.653,60,5,60 c-0.656,0-0.99-0.318-1-0.4V16.4C4.01,16.318,4.344,16,5,16c0.653,0,0.989,0.318,1,0.4V59.6z M22,32h27c3.771,0,6.646,5.616,6.97,11 H22V32z M14,33c2.206,0,4,1.794,4,4s-1.794,4-4,4s-4-1.794-4-4S11.794,33,14,33z M56,51H8v-6.003 c0.516-0.04,0.922-0.471,0.922-0.997c0-0.551,0.432-1,0.962-1h8.076c0.53,0,0.962,0.449,0.962,1c0,0.552,0.447,1,1,1H21h35V51z M60,59.824C59.824,59.904,59.479,60,59,60s-0.824-0.096-1-0.176V32.176C58.176,32.096,58.521,32,59,32s0.824,0.096,1,0.176V59.824z" fill="inherit"/></g><g id="change1_2"><path d="M22.905,18.576C22.741,18.225,22.388,18,22,18h-6v2h3.865l-3.634,4.36c-0.248,0.298-0.302,0.713-0.137,1.064 C16.259,25.775,16.612,26,17,26h6v-2h-3.865l3.634-4.36C23.017,19.342,23.07,18.927,22.905,18.576z" fill="inherit"/></g><g id="change1_3"><path d="M35.898,10.561C35.73,10.218,35.382,10,35,10h-8v2h5.955l-5.744,7.386c-0.234,0.301-0.277,0.71-0.109,1.053 C27.27,20.782,27.618,21,28,21h8v-2h-5.955l5.744-7.386C36.023,11.312,36.066,10.904,35.898,10.561z" fill="inherit"/></g><g id="change1_4"><path d="M40.105,15.447C40.275,15.786,40.621,16,41,16h10v-2h-8l7.8-10.4c0.228-0.303,0.264-0.708,0.095-1.047 C50.725,2.214,50.379,2,50,2h-9v2h7l-7.8,10.4C39.973,14.703,39.937,15.108,40.105,15.447z" fill="inherit"/></g></svg>