<?xml version="1.0" encoding="UTF-8" standalone="no"?><svg xmlns="http://www.w3.org/2000/svg" xmlns:xlink="http://www.w3.org/1999/xlink" fill="#fbfbfb" height="62.2" preserveAspectRatio="xMidYMid meet" version="1" viewBox="10.0 9.0 58.0 62.2" width="58" zoomAndPan="magnify"><g id="change1_1"><path d="M 43.996094 9 C 40.144531 9 37 12.144531 37 16 C 37 19.851563 40.144531 23 43.996094 23 C 47.855469 23 51 19.851563 51 16 C 51 12.148438 47.855469 9 43.996094 9 Z M 43.996094 11 C 46.773438 11 49 13.226563 49 16 C 49 18.769531 46.773438 21 43.996094 21 C 41.226563 21 39 18.769531 39 16 C 39 13.226563 41.226563 11 43.996094 11 Z M 37.015625 24 C 34.828125 24 32.714844 24.796875 31.074219 26.238281 L 26.699219 30.089844 C 25.859375 30.828125 25.289063 31.824219 25.082031 32.925781 C 24.792969 34.5 24.292969 37.179688 23.867188 39.484375 C 23.652344 40.640625 23.457031 41.699219 23.3125 42.484375 C 23.238281 42.875 23.179688 43.195313 23.136719 43.425781 C 23.09375 43.65625 23.078125 43.730469 23.0625 43.839844 C 23.007813 44.183594 23.003906 44.515625 23.003906 44.515625 C 23.003906 44.53125 23.003906 44.546875 23.003906 44.5625 C 23.039063 46.453125 24.601563 48 26.5 48 C 27.957031 48 29.214844 47.097656 29.734375 45.820313 C 29.746094 45.800781 29.867188 45.550781 29.933594 45.183594 C 29.9375 45.152344 30.398438 42.664063 30.84375 40.28125 C 31.25 38.074219 31.597656 36.207031 31.65625 35.894531 L 34.046875 33.894531 L 32.191406 42.507813 C 32.0625 43.101563 32.007813 43.703125 32.011719 44.300781 L 32.011719 44.304688 C 31.992188 44.355469 31.976563 44.410156 31.964844 44.464844 L 29.546875 54.996094 L 22.726563 64.703125 C 22.605469 64.871094 22.542969 65.074219 22.546875 65.28125 C 22.277344 65.816406 22 66.359375 22 67 C 22 69.199219 23.800781 71 26 71 C 27.171875 71 28.175781 70.425781 28.90625 69.617188 C 29.054688 69.542969 29.179688 69.433594 29.273438 69.300781 L 36.722656 58.695313 C 36.78125 58.617188 36.824219 58.53125 36.855469 58.441406 L 38.027344 54.988281 L 48.667969 69.207031 C 48.773438 69.347656 48.914063 69.457031 49.074219 69.527344 C 49.957031 70.539063 51.261719 71.199219 52.738281 70.933594 C 54.339844 70.644531 55.601563 69.390625 55.921875 67.804688 C 55.921875 67.804688 55.921875 67.800781 55.921875 67.800781 C 56.109375 66.867188 55.902344 65.984375 55.519531 65.226563 C 55.496094 65.09375 55.449219 64.96875 55.378906 64.859375 L 43.324219 45.851563 L 44.761719 39.472656 L 45.15625 40.035156 C 45.503906 40.535156 46 40.917969 46.574219 41.128906 L 56.765625 44.898438 C 56.824219 44.921875 56.890625 44.9375 56.953125 44.949219 C 57.089844 44.96875 57.269531 45 57.5 45 C 59.421875 45 61 43.421875 61 41.5 C 61 40.257813 60.339844 39.160156 59.359375 38.542969 C 59.304688 38.507813 59.246094 38.480469 59.183594 38.453125 L 50.425781 35.109375 L 46.964844 29.523438 C 47.25 26.628906 44.949219 24 41.957031 24 Z M 37.015625 26 L 41.957031 26 C 43.925781 26 45.347656 27.78125 44.917969 29.699219 L 41.28125 45.816406 C 41.222656 46.074219 41.269531 46.347656 41.410156 46.574219 L 53.167969 65.105469 L 53.972656 64.5625 C 53.519531 64.867188 53.390625 65.472656 53.683594 65.933594 C 53.953125 66.355469 54.074219 66.847656 53.960938 67.410156 C 53.804688 68.171875 53.136719 68.832031 52.382813 68.96875 C 51.488281 69.128906 50.738281 68.726563 50.316406 68.066406 C 50.042969 67.636719 49.484375 67.480469 49.027344 67.707031 L 49.769531 67.339844 L 35.234375 47.917969 C 34.167969 46.492188 33.769531 44.671875 34.144531 42.929688 L 36.617188 31.480469 C 36.707031 31.0625 36.523438 30.632813 36.15625 30.414063 C 35.792969 30.191406 35.324219 30.226563 35 30.5 L 30.097656 34.589844 C 29.917969 34.738281 29.796875 34.945313 29.753906 35.175781 C 29.753906 35.175781 29.316406 37.535156 28.875 39.917969 C 28.433594 42.300781 28 44.636719 27.964844 44.828125 C 27.957031 44.875 27.902344 45.03125 27.902344 45.03125 C 27.894531 45.039063 27.890625 45.050781 27.890625 45.0625 C 27.664063 45.609375 27.136719 46 26.5 46 C 25.671875 46 25.027344 45.359375 25.007813 44.535156 C 25.011719 44.480469 25.023438 44.242188 25.035156 44.15625 C 25.039063 44.15625 25.039063 44.15625 25.035156 44.15625 C 25.027344 44.21875 25.0625 44.019531 25.105469 43.789063 C 25.144531 43.558594 25.203125 43.238281 25.277344 42.84375 C 25.421875 42.0625 25.617188 41.003906 25.832031 39.851563 C 26.257813 37.546875 26.757813 34.867188 27.050781 33.292969 C 27.175781 32.628906 27.511719 32.035156 28.015625 31.59375 L 32.394531 27.742188 C 33.671875 26.617188 35.316406 26 37.015625 26 Z M 46.367188 32.355469 L 48.90625 36.449219 C 49.019531 36.632813 49.191406 36.777344 49.394531 36.855469 L 58.308594 40.261719 C 58.722656 40.53125 59 40.96875 59 41.5 C 59 42.339844 58.339844 43 57.5 43 C 57.472656 43 57.40625 42.988281 57.34375 42.984375 L 47.265625 39.253906 C 47.074219 39.183594 46.910156 39.058594 46.792969 38.890625 L 45.355469 36.839844 Z M 33.125 48.34375 C 33.28125 48.609375 33.445313 48.871094 33.632813 49.117188 L 36.574219 53.046875 L 35.003906 57.664063 L 27.699219 68.0625 C 27.695313 68.066406 27.695313 68.066406 27.695313 68.066406 C 27.671875 68.09375 27.652344 68.117188 27.632813 68.144531 C 27.269531 68.664063 26.683594 69 26 69 C 24.882813 69 24 68.117188 24 67 C 24 66.570313 24.136719 66.183594 24.367188 65.855469 C 24.667969 65.425781 24.589844 64.835938 24.183594 64.503906 L 24.921875 65.058594 L 31.296875 55.984375 C 31.371094 55.875 31.425781 55.757813 31.453125 55.628906 Z M 11 64 C 10.449219 64 10 64.449219 10 65 C 10 65.550781 10.449219 66 11 66 C 11.550781 66 12 65.550781 12 65 C 12 64.449219 11.550781 64 11 64 Z M 15 64 C 14.449219 64 14 64.449219 14 65 C 14 65.550781 14.449219 66 15 66 C 15.550781 66 16 65.550781 16 65 C 16 64.449219 15.550781 64 15 64 Z M 19 64 C 18.449219 64 18 64.449219 18 65 C 18 65.550781 18.449219 66 19 66 C 19.550781 66 20 65.550781 20 65 C 20 64.449219 19.550781 64 19 64 Z M 35 64 C 34.449219 64 34 64.449219 34 65 C 34 65.550781 34.449219 66 35 66 C 35.550781 66 36 65.550781 36 65 C 36 64.449219 35.550781 64 35 64 Z M 39 64 C 38.449219 64 38 64.449219 38 65 C 38 65.550781 38.449219 66 39 66 C 39.550781 66 40 65.550781 40 65 C 40 64.449219 39.550781 64 39 64 Z M 43 64 C 42.449219 64 42 64.449219 42 65 C 42 65.550781 42.449219 66 43 66 C 43.550781 66 44 65.550781 44 65 C 44 64.449219 43.550781 64 43 64 Z M 59 64 C 58.449219 64 58 64.449219 58 65 C 58 65.550781 58.449219 66 59 66 C 59.550781 66 60 65.550781 60 65 C 60 64.449219 59.550781 64 59 64 Z M 63 64 C 62.449219 64 62 64.449219 62 65 C 62 65.550781 62.449219 66 63 66 C 63.550781 66 64 65.550781 64 65 C 64 64.449219 63.550781 64 63 64 Z M 67 64 C 66.449219 64 66 64.449219 66 65 C 66 65.550781 66.449219 66 67 66 C 67.550781 66 68 65.550781 68 65 C 68 64.449219 67.550781 64 67 64 Z" fill="inherit"/></g></svg>