<?xml version="1.0" encoding="UTF-8" standalone="no"?><svg xmlns="http://www.w3.org/2000/svg" xmlns:xlink="http://www.w3.org/1999/xlink" fill="#fbfbfb" height="399.4" preserveAspectRatio="xMidYMid meet" version="1.1" viewBox="16.0 55.6 482.5 399.4" width="482.5" zoomAndPan="magnify">
 <g id="change1_1">
  <path d="m474.91 347.98c-2.84 6.97-6.91 14.37-11.92 21.75l-14.91-14.91c-0.47-0.46-0.97-0.91-1.48-1.32-9.82-7.94-26.2-4.95-38.12 6.98-2.59 2.59-4.8 5.44-6.57 8.43-0.35 0.59-0.69 1.19-1 1.78-5.3 10.13-5.11 20.76 0.5 27.8 0.21 0.27 0.42 0.52 0.64 0.76 0.24 0.28 0.5 0.55 0.77 0.82l14.91 14.91c-4.91 3.34-9.8 6.25-14.64 8.68-14.41 7.26-27.18 9.77-35.02 6.89-1.71-0.63-3.18-1.54-4.33-2.7h-0.01c-1.21-1.22-2.12-2.69-2.76-4.52-2.66-7.53-0.39-19.69 6.23-33.37 6.66-13.73 17.01-27.84 29.97-40.79 5.06-5.07 10.37-9.79 15.78-14.05 15.35-12.08 31.54-20.32 44.44-22.59 5.53-0.98 10.35-0.82 13.96 0.45 1.81 0.63 3.28 1.54 4.5 2.76 5.45 5.44 5.1 17.49-0.94 32.24zm-9.02 52.18c-0.75 3.76-3.12 7.85-6.5 11.23s-7.47 5.75-11.23 6.5c-2.55 0.51-4.7 0.2-5.74-0.84-2.31-2.31-1.25-10.07 5.66-16.97 4.78-4.78 9.97-6.76 13.47-6.76 1.56 0 2.79 0.39 3.5 1.1 1.04 1.04 1.35 3.19 0.84 5.74zm-51.74-11.38c-0.05-0.05-0.1-0.11-0.15-0.17-0.02-0.02-0.04-0.05-0.05-0.07-1.27-1.56-1.45-5.48 1.14-10.43 0.17-0.33 0.35-0.65 0.57-1.01 1.11-1.89 2.5-3.67 4.14-5.31 6.65-6.65 14.23-7.89 16.74-5.84 0.03 0.02 0.05 0.04 0.08 0.06 0.05 0.04 0.1 0.08 0.14 0.13l13.53 13.52c-4.72 1.9-9.38 4.95-13.52 9.11-4.16 4.15-7.21 8.8-9.11 13.52zm-78.35 33.76c-12.94 2.28-23.24 0.42-29.14-5.49l-0.04-0.03c-8.1-8.15-8.56-24.34-1.25-44.43 8.15-22.43 24.68-46.82 46.54-68.68s46.25-38.39 68.68-46.54c9.49-3.45 18.11-5.17 25.42-5.17 8.17 0 14.71 2.15 19.01 6.42l0.03 0.04c6 6 7.86 16.14 5.52 29.17l-6.03-6.03c-9.9-9.9-26.42-11.24-46.52-3.77-18.06 6.7-37.52 19.91-54.8 37.19s-30.49 36.74-37.19 54.8c-7.47 20.1-6.13 36.62 3.77 46.52zm-53.06-72.58c8.16-22.43 24.69-46.82 46.55-68.67 21.85-21.86 46.24-38.39 68.67-46.55 20.12-7.31 36.33-6.85 44.46 1.29l0.25 0.24c-8.37 0.44-17.62 2.45-27.55 6.06-24.58 8.94-51.05 26.79-74.53 50.26-23.47 23.48-41.32 49.95-50.26 74.53-3.61 9.93-5.62 19.18-6.06 27.55l-0.24-0.25c-8.14-8.13-8.6-24.34-1.29-44.46zm-122.74-38.96h124.64c-6.88 10.74-12.41 21.53-16.36 32h-108.28zm-16 112c0 8.82-7.18 16-16 16s-16-7.18-16-16v-192c0-8.82 7.18-16 16-16s16 7.18 16 16zm-64-40c-8.824 0-16-7.18-16-16v-80c0-8.82 7.176-16 16-16s16 7.18 16 16v80c0 8.82-7.176 16-16 16zm46.07-222.37c5.92-15.94 17.82-33.36 33.51-49.05 15.69-15.689 33.11-27.588 49.05-33.51 11.75-4.367 21.66-4.902 27.37-1.625-21.82 9.735-44.61 25.945-65.11 46.445-20.43 20.44-36.72 43.41-46.44 65.13-3.28-5.71-2.75-15.63 1.62-27.39zm10.88-49.05c-1.04-1.04-1.35-3.19-0.84-5.74 0.75-3.76 3.12-7.852 6.5-11.231s7.47-5.75 11.23-6.5c2.55-0.511 4.7-0.195 5.74 0.844l0.46 0.461c-4 3.402-7.95 7.02-11.77 10.856-3.84 3.82-7.45 7.77-10.86 11.77zm158.39-22.635l0.25 0.25c-8.37 0.438-17.62 2.45-27.55 6.059-24.58 8.946-51.04 26.796-74.52 50.266-19.32 19.32-34.8 40.63-44.66 61.25-3.49-3.02-7.63-5.28-12.19-6.57 8.38-21.47 24.58-45.03 45.54-65.99 21.85-21.86 46.24-38.39 68.67-46.546 20.12-7.32 36.33-6.852 44.46 1.281zm-1.47 111.66l-26.81-26.81c-4.9-4.9-12.26-6.8-20.2-5.21-6.87 1.37-13.76 5.23-19.4 10.87s-9.5 12.53-10.87 19.4c-1.59 7.94 0.31 15.3 5.21 20.2l26.81 26.81c-36.67 28.04-73.71 38.51-88.61 24.48v-39.35c0-2.61-0.32-5.14-0.91-7.56 8.38-21.84 24.53-45.39 45.75-66.6 21.85-21.86 46.24-38.39 68.67-46.55 20.12-7.32 36.33-6.85 44.46 1.29 14.62 14.62 4.2 52.02-24.1 89.03zm13.14 81.02l-73.89-73.88c-1.04-1.04-1.35-3.19-0.84-5.75 0.75-3.75 3.11-7.85 6.49-11.23s7.48-5.74 11.23-6.49c2.56-0.51 4.71-0.2 5.75 0.84l73.88 73.89c-3.95 3.5-7.84 7.15-11.66 10.96-3.81 3.82-7.46 7.71-10.96 11.66zm-147.01 7.38c5.48 2.24 11.72 3.34 18.55 3.34 22.81 0 52.17-12.23 81.47-35.07l36.71 36.7c-0.27 0.34-0.52 0.68-0.78 1.02h-135.95zm208-58.01c0-4.27 1.67-8.29 4.68-11.31 3.03-3.02 7.05-4.69 11.32-4.69 4 0 7.72 1.47 10.57 3.98-0.69 0.23-1.38 0.47-2.08 0.73-8.02 2.91-16.24 6.79-24.49 11.49zm-13.76 149.11c-2.38 4.62-4.51 9.39-6.23 14.3-1.49 4.26-3.56 9.57-3.56 14.14l-3.34-3.33c-5.06-5.06-5.09-16.14-0.08-29.63 5.92-15.95 17.82-33.37 33.51-49.05 15.68-15.69 33.1-27.59 49.05-33.51 13.49-5.01 24.57-4.98 29.64 0.09l3.35 3.35c-0.65 0.1-1.3 0.18-1.97 0.3-15.64 2.76-33.95 11.91-51.56 25.78-5.9 4.64-11.69 9.79-17.2 15.3-13.31 13.31-24.19 27.87-31.61 42.26zm-322.24-37.11v-32h16v32zm455.17-38.57v-0.01l-3.35-3.34c6.74-23.13 4.14-42.13-7.45-53.74-0.03-0.03-0.07-0.05-0.1-0.09l-22.54-22.54c-9.67-9.67-24.32-13.09-42.25-10.12-5.68-9.54-15.99-15.59-27.48-15.59-8.53 0-16.57 3.32-22.63 9.38-6.05 6.05-9.37 14.09-9.37 22.62v10.34c-3.36 2.34-6.7 4.8-10.02 7.39l-36.71-36.71c35.24-45.22 45.22-90.55 24.02-111.76l-22.63-22.627c-11.67-11.668-30.57-14.235-53.75-7.465l-3.34-3.328c-9.89-9.899-26.41-11.235-46.51-3.77-9.87 3.668-20.17 9.289-30.29 16.446l-1.88-1.879c-4.9-4.903-12.26-6.801-20.19-5.215-6.88 1.375-13.77 5.234-19.41 10.875-5.63 5.637-9.49 12.523-10.87 19.403-1.59 7.93 0.31 15.29 5.22 20.19l1.88 1.88c-7.16 10.12-12.78 20.42-16.45 30.29-7.46 20.1-6.13 36.62 3.77 46.51l0.18 0.19c-11.19 4.99-19.02 16.21-19.02 29.24v28.3c-4.711-2.73-10.172-4.3-16-4.3-17.645 0-32 14.36-32 32v8h-24c-4.418 0-8 3.58-8 8v48c0 4.42 3.582 8 8 8h24v8c0 17.64 14.355 32 32 32 5.828 0 11.289-1.57 16-4.3v28.3c0 17.64 14.36 32 32 32s32-14.36 32-32v-64h103.45c-4.34 19.98-1.2 36.27 9.26 46.73l22.54 22.54c0.04 0.03 0.06 0.07 0.09 0.1 7.4 7.39 17.77 11.13 30.3 11.13 7.16 0 15.02-1.23 23.43-3.68l3.35 3.35h0.01c2.8 2.81 6.22 4.96 10.13 6.4 3.83 1.41 8.13 2.1 12.81 2.1 10.18 0 22.15-3.29 34.92-9.71 6.28-3.17 12.62-7.01 18.94-11.47l1.87 1.88 0.01-0.01c3.77 3.77 8.99 5.77 14.81 5.77 1.75 0 3.55-0.18 5.38-0.55 6.88-1.37 13.77-5.24 19.41-10.87 5.63-5.64 9.49-12.53 10.87-19.41 1.59-7.93-0.31-15.29-5.22-20.19l0.01-0.01-1.89-1.89c6.43-9.11 11.66-18.4 15.24-27.18 8.82-21.53 7.91-39.14-2.55-49.6" fill="inherit"/>
 </g>
</svg>