<?xml version="1.0" encoding="UTF-8" standalone="no"?><svg xmlns="http://www.w3.org/2000/svg" xmlns:xlink="http://www.w3.org/1999/xlink" fill="#fbfbfb" height="243.9" preserveAspectRatio="xMidYMid meet" version="1" viewBox="23.6 124.0 443.7 243.9" width="443.7" zoomAndPan="magnify"><g><g id="change1_12"><path d="M206.19,310.39h-9.55c-10.52,0-19.08-8.56-19.08-19.08c0-10.52,8.56-19.08,19.08-19.08h9.55c2.76,0,5,2.24,5,5 s-2.24,5-5,5h-9.55c-5.01,0-9.08,4.07-9.08,9.08s4.07,9.08,9.08,9.08h9.55c2.76,0,5,2.24,5,5S208.95,310.39,206.19,310.39z"/></g><g id="change1_10"><path d="M448.18,310.39h-9.55c-2.76,0-5-2.24-5-5s2.24-5,5-5h9.55c5.01,0,9.08-4.07,9.08-9.08s-4.07-9.08-9.08-9.08h-9.55 c-2.76,0-5-2.24-5-5s2.24-5,5-5h9.55c10.52,0,19.08,8.56,19.08,19.08C467.26,301.83,458.7,310.39,448.18,310.39z"/></g><g id="change1_1"><path d="M363.35,282.23h-81.89c-2.76,0-5-2.24-5-5s2.24-5,5-5h81.89c2.76,0,5,2.24,5,5S366.11,282.23,363.35,282.23z"/></g><g id="change1_11"><path d="M363.35,310.39h-81.89c-2.76,0-5-2.24-5-5s2.24-5,5-5h81.89c2.76,0,5,2.24,5,5S366.11,310.39,363.35,310.39z"/></g><g id="change1_3"><path d="M269.1,367.82h-12.9c-9.58,0-17.37-7.79-17.37-17.37v-99.97c0-2.76,2.24-5,5-5s5,2.24,5,5v99.97 c0,4.06,3.3,7.37,7.37,7.37h12.9c4.06,0,7.37-3.3,7.37-7.37v-118.3c0-4.06-3.3-7.37-7.37-7.37h-12.9c-4.06,0-7.37,3.3-7.37,7.37 v1.04c0,2.76-2.24,5-5,5s-5-2.24-5-5v-1.04c0-9.58,7.79-17.37,17.37-17.37h12.9c9.58,0,17.37,7.79,17.37,17.37v118.3 C286.46,360.03,278.67,367.82,269.1,367.82z"/></g><g id="change1_6"><path d="M231.46,351.52h-12.9c-9.58,0-17.37-7.79-17.37-17.37v-85.47c0-2.76,2.24-5,5-5s5,2.24,5,5v85.47 c0,4.06,3.3,7.37,7.37,7.37h12.9c4.06,0,7.37-3.3,7.37-7.37c0-2.76,2.24-5,5-5s5,2.24,5,5 C248.83,343.73,241.04,351.52,231.46,351.52z"/></g><g id="change1_5"><path d="M388.62,367.82h-12.9c-9.58,0-17.37-7.79-17.37-17.37v-118.3c0-9.58,7.79-17.37,17.37-17.37h12.9 c9.58,0,17.37,7.79,17.37,17.37v118.3C405.99,360.03,398.2,367.82,388.62,367.82z M375.72,224.79c-4.06,0-7.37,3.3-7.37,7.37 v118.3c0,4.06,3.3,7.37,7.37,7.37h12.9c4.06,0,7.37-3.3,7.37-7.37v-118.3c0-4.06-3.3-7.37-7.37-7.37H375.72z"/></g><g id="change1_13"><path d="M426.26,351.52h-12.9c-9.58,0-17.37-7.79-17.37-17.37c0-2.76,2.24-5,5-5s5,2.24,5,5c0,4.06,3.3,7.37,7.37,7.37h12.9 c4.06,0,7.37-3.3,7.37-7.37v-85.69c0-4.06-3.3-7.37-7.37-7.37h-12.9c-4.06,0-7.37,3.3-7.37,7.37c0,2.76-2.24,5-5,5s-5-2.24-5-5 c0-9.58,7.79-17.37,17.37-17.37h12.9c9.58,0,17.37,7.79,17.37,17.37v85.69C443.63,343.73,435.84,351.52,426.26,351.52z"/></g><g><g id="change1_2"><path d="M57.41,354.75c-4.89,0-9.77-1.86-13.49-5.58c-3.59-3.59-5.57-8.39-5.57-13.49s1.98-9.9,5.57-13.49l6.75-6.75 c1.95-1.95,5.12-1.95,7.07,0c1.95,1.95,1.95,5.12,0,7.07l-6.75,6.75c-1.7,1.7-2.64,3.98-2.64,6.42s0.94,4.72,2.64,6.42 c3.54,3.54,9.3,3.54,12.84,0l6.75-6.75c1.95-1.95,5.12-1.95,7.07,0c1.95,1.95,1.95,5.12,0,7.07l-6.76,6.76 C67.18,352.89,62.29,354.75,57.41,354.75z"/></g><g id="change1_14"><path d="M238.48,179.52c-1.28,0-2.56-0.49-3.54-1.46c-1.95-1.95-1.95-5.12,0-7.07l6.75-6.75c3.54-3.54,3.54-9.3,0-12.84 c-3.54-3.54-9.3-3.54-12.84,0l-6.75,6.76c-1.95,1.95-5.12,1.95-7.07,0c-1.95-1.95-1.95-5.12,0-7.07l6.75-6.75 c3.59-3.59,8.38-5.57,13.49-5.57c0,0,0,0,0,0c5.11,0,9.9,1.98,13.49,5.57c7.44,7.44,7.44,19.54,0,26.98l-6.75,6.75 C241.04,179.03,239.76,179.52,238.48,179.52z"/></g><g id="change1_4"><path d="M107.43,270.74c-1.28,0-2.56-0.49-3.54-1.46c-1.95-1.95-1.95-5.12,0-7.07l57.9-57.9c1.95-1.95,5.12-1.95,7.07,0 c1.95,1.95,1.95,5.12,0,7.07l-57.9,57.9C109.99,270.25,108.71,270.74,107.43,270.74z"/></g><g id="change1_15"><path d="M127.35,290.65c-1.28,0-2.56-0.49-3.54-1.46c-1.95-1.95-1.95-5.12,0-7.07l57.9-57.9c1.95-1.95,5.12-1.95,7.07,0 c1.95,1.95,1.95,5.12,0,7.07l-57.9,57.9C129.9,290.16,128.62,290.65,127.35,290.65z"/></g><g id="change1_16"><path d="M141.34,352.74c-4.45,0-8.89-1.69-12.28-5.08l-83.65-83.65c-6.77-6.77-6.77-17.79,0-24.56l9.13-9.13 c6.77-6.77,17.79-6.77,24.56,0l83.65,83.65c6.77,6.77,6.77,17.79,0,24.56l-9.13,9.13C150.24,351.05,145.79,352.74,141.34,352.74z M66.82,235.25c-1.89,0-3.77,0.72-5.21,2.15l-9.13,9.13c-2.87,2.87-2.87,7.55,0,10.42l83.65,83.65c2.87,2.87,7.54,2.87,10.42,0 l9.12-9.12c2.87-2.87,2.87-7.55,0-10.42L72.03,237.4C70.59,235.97,68.71,235.25,66.82,235.25z"/></g><g id="change1_8"><path d="M103.2,367.83c-4.45,0-8.89-1.69-12.28-5.08l-60.59-60.59c-6.77-6.77-6.77-17.79,0-24.56l9.12-9.13 c6.77-6.77,17.79-6.77,24.56,0c1.95,1.95,1.95,5.12,0,7.07c-1.95,1.95-5.12,1.95-7.07,0c-2.87-2.87-7.55-2.87-10.42,0l-9.12,9.12 c-2.87,2.87-2.87,7.55,0,10.42l60.59,60.59c2.87,2.87,7.54,2.87,10.42,0l9.12-9.13c1.38-1.38,2.14-3.23,2.14-5.21 c0-1.98-0.76-3.83-2.14-5.21c-1.95-1.95-1.95-5.12,0-7.07c1.95-1.95,5.12-1.95,7.07,0c3.27,3.27,5.07,7.63,5.07,12.28 c0,4.65-1.8,9.01-5.07,12.28l-9.12,9.12C112.1,366.13,107.65,367.83,103.2,367.83z"/></g><g id="change1_9"><path d="M225.86,268.22c-4.65,0-9.01-1.8-12.28-5.07l-83.65-83.65c-6.77-6.77-6.77-17.79,0-24.56l9.13-9.13 c6.77-6.77,17.79-6.77,24.56,0l83.65,83.65c6.77,6.77,6.77,17.79,0,24.56l-9.13,9.13C234.87,266.42,230.51,268.22,225.86,268.22z M151.34,150.73c-1.89,0-3.77,0.72-5.21,2.15l-9.12,9.13c-2.87,2.87-2.87,7.54,0,10.42l83.65,83.65 c1.38,1.38,3.23,2.14,5.21,2.14s3.83-0.76,5.21-2.14l9.13-9.12c2.87-2.87,2.87-7.55,0-10.42l-83.65-83.65 C155.11,151.45,153.22,150.73,151.34,150.73z"/></g><g id="change1_7"><path d="M240.95,230.08c-4.45,0-8.89-1.69-12.28-5.08c-1.95-1.95-1.95-5.12,0-7.07c1.95-1.95,5.12-1.95,7.07,0 c2.87,2.87,7.55,2.87,10.42,0l9.13-9.12c2.87-2.87,2.87-7.55,0-10.42l-60.59-60.59c-2.87-2.87-7.54-2.87-10.42,0l-9.13,9.13 c-1.38,1.38-2.14,3.23-2.14,5.21s0.76,3.83,2.14,5.21c1.95,1.95,1.95,5.12,0,7.07c-1.95,1.95-5.12,1.95-7.07,0 c-3.27-3.27-5.07-7.63-5.07-12.28c0-4.65,1.8-9.01,5.07-12.28l9.12-9.13c6.77-6.77,17.79-6.77,24.56,0l60.59,60.59 c6.77,6.77,6.77,17.79,0,24.56l-9.13,9.12C249.84,228.39,245.39,230.08,240.95,230.08z"/></g></g></g></svg>