<?xml version="1.0" encoding="UTF-8" standalone="no"?><svg xmlns="http://www.w3.org/2000/svg" xmlns:xlink="http://www.w3.org/1999/xlink" fill="#000000" height="1616.5" preserveAspectRatio="xMidYMid meet" version="1" viewBox="-1.9 0.0 2264.7 1616.5" width="2264.7" zoomAndPan="magnify"><defs><clipPath id="a"><path d="M 784 0 L 2262.78125 0 L 2262.78125 1616.46875 L 784 1616.46875 Z M 784 0"/></clipPath></defs><g><g id="change1_2"><path d="M 516.046875 1513.550781 L 431.695312 1401.609375 C 424.359375 1391.878906 412.710938 1386.488281 400.53125 1387.191406 C 393.355469 1387.609375 386.519531 1390.121094 380.761719 1394.460938 C 364.75 1406.53125 361.539062 1429.378906 373.605469 1445.390625 L 402.746094 1484.058594 L 341.785156 1530 L 74.53125 1175.339844 L 135.492188 1129.398438 L 299.054688 1346.230469 C 306.390625 1355.960938 318.039062 1361.351562 330.214844 1360.648438 C 337.394531 1360.230469 344.230469 1357.71875 349.988281 1353.378906 C 366.003906 1341.308594 369.214844 1318.46875 357.144531 1302.449219 L 138.367188 1012.351562 L 206.5625 960.960938 L 584.242188 1462.171875 Z M 151.605469 1439.828125 L 108.78125 1383 L 128.652344 1368.019531 L 171.480469 1424.859375 Z M 852.007812 822.9375 L 894.835938 879.769531 L 474.910156 1196.210938 L 432.082031 1139.378906 Z M 742.667969 556.980469 L 810.867188 505.589844 L 1029.648438 795.6875 C 1036.980469 805.421875 1048.628906 810.8125 1060.808594 810.109375 C 1067.980469 809.695312 1074.820312 807.183594 1080.578125 802.84375 C 1096.589844 790.773438 1099.808594 767.929688 1087.738281 751.910156 L 924.171875 535.078125 L 985.132812 489.148438 L 1252.390625 843.8125 L 1191.429688 889.746094 L 1162.289062 851.078125 C 1154.960938 841.34375 1143.300781 835.949219 1131.128906 836.652344 C 1123.949219 837.070312 1117.109375 839.578125 1111.359375 843.917969 C 1103.601562 849.765625 1098.578125 858.285156 1097.230469 867.902344 C 1095.878906 877.523438 1098.351562 887.09375 1104.199219 894.851562 L 1188.550781 1006.789062 L 1120.351562 1058.179688 Z M 1175.308594 579.308594 L 1218.140625 636.144531 L 1198.261719 651.121094 L 1155.429688 594.289062 Z M 518.683594 1254.300781 L 938.609375 937.859375 L 1063.851562 1104.070312 C 1077.960938 1122.78125 1100.421875 1133.148438 1123.929688 1131.789062 C 1137.820312 1130.988281 1151.039062 1126.128906 1162.171875 1117.738281 L 1234.269531 1063.410156 C 1249.238281 1052.128906 1258.941406 1035.691406 1261.589844 1017.121094 C 1264.230469 998.535156 1259.488281 980.066406 1248.230469 965.125 L 1235.199219 947.835938 L 1299.671875 899.261719 C 1314.21875 888.292969 1323.648438 872.308594 1326.21875 854.253906 C 1328.789062 836.179688 1324.179688 818.222656 1313.230469 803.6875 L 1242.039062 709.210938 L 1290.960938 672.347656 C 1306.96875 660.28125 1310.179688 637.433594 1298.121094 621.414062 L 1211.511719 506.488281 C 1204.179688 496.761719 1192.53125 491.371094 1180.351562 492.070312 C 1173.171875 492.488281 1166.339844 495 1160.578125 499.328125 L 1111.660156 536.199219 L 1040.46875 441.71875 C 1026.75 423.519531 1004.910156 413.441406 982.039062 414.761719 C 968.539062 415.539062 955.683594 420.261719 944.859375 428.421875 L 880.398438 476.988281 L 867.371094 459.710938 C 853.265625 440.988281 830.804688 430.621094 807.285156 431.980469 C 793.398438 432.78125 780.175781 437.640625 769.042969 446.03125 L 696.945312 500.359375 C 681.976562 511.640625 672.277344 528.078125 669.632812 546.648438 C 666.988281 565.230469 671.730469 583.699219 682.992188 598.648438 L 808.234375 764.847656 L 388.308594 1081.28125 L 263.066406 915.082031 C 248.960938 896.359375 226.496094 885.996094 202.980469 887.355469 C 189.09375 888.15625 175.871094 893.015625 164.738281 901.402344 L 92.640625 955.730469 C 61.6875 979.058594 55.425781 1023.148438 78.6875 1054.019531 L 91.714844 1071.308594 L 27.253906 1119.878906 C 12.695312 1130.851562 3.265625 1146.828125 0.695312 1164.890625 C -1.875 1182.96875 2.738281 1200.929688 13.6875 1215.460938 L 84.878906 1309.929688 L 35.960938 1346.789062 C 28.203125 1352.640625 23.183594 1361.160156 21.832031 1370.78125 C 20.480469 1380.398438 22.957031 1389.96875 28.804688 1397.730469 L 115.402344 1512.648438 C 122.738281 1522.378906 134.390625 1527.78125 146.566406 1527.070312 C 153.742188 1526.660156 160.578125 1524.148438 166.335938 1519.808594 L 215.253906 1482.949219 L 286.445312 1577.421875 C 300.164062 1595.628906 322.007812 1605.710938 344.875 1604.390625 C 358.375 1603.609375 371.234375 1598.878906 382.058594 1590.730469 L 446.523438 1542.148438 L 459.546875 1559.441406 C 473.652344 1578.160156 496.113281 1588.519531 519.636719 1587.160156 C 533.519531 1586.359375 546.742188 1581.5 557.871094 1573.121094 L 629.96875 1518.789062 C 644.9375 1507.511719 654.640625 1491.070312 657.28125 1472.5 C 659.929688 1453.910156 655.1875 1435.441406 643.925781 1420.5 L 518.683594 1254.300781" fill="#fbfbfb"/></g><g clip-path="url(#a)" id="change1_1"><path d="M 2241.398438 357.699219 C 2227.800781 310.300781 2207.699219 265.839844 2181.648438 225.558594 C 2132.351562 149.308594 2061.71875 88.28125 1977.410156 49.058594 C 1886.820312 6.929688 1785.28125 -8.5 1683.78125 4.449219 C 1577.808594 17.96875 1477.839844 62.148438 1394.691406 132.199219 C 1377.789062 146.441406 1375.640625 171.671875 1389.871094 188.570312 C 1404.101562 205.460938 1429.339844 207.621094 1446.230469 193.378906 C 1587.058594 74.730469 1782.320312 46.558594 1943.671875 121.601562 C 2095.628906 192.269531 2182.78125 335.71875 2182.78125 515.171875 C 2182.78125 623.980469 2133.628906 742.453125 2032.519531 877.347656 C 1941.25 999.132812 1823.910156 1114.070312 1710.429688 1225.230469 L 1707.71875 1227.890625 C 1597.738281 1335.621094 1510.628906 1412.601562 1441.429688 1463.21875 C 1356.601562 1525.261719 1312.761719 1537.25 1290.898438 1536.429688 C 1270.050781 1535.621094 1221.730469 1524.921875 1132.460938 1462.328125 C 1052.851562 1406.53125 959.058594 1322.71875 853.675781 1213.261719 C 838.351562 1197.339844 813.03125 1196.859375 797.113281 1212.179688 C 781.199219 1227.5 780.71875 1252.828125 796.039062 1268.738281 C 904.988281 1381.910156 1002.71875 1469.078125 1086.539062 1527.839844 C 1167.421875 1584.539062 1235.128906 1614.332031 1287.808594 1616.371094 C 1289.519531 1616.429688 1291.238281 1616.46875 1292.980469 1616.46875 C 1343.71875 1616.46875 1406.121094 1588.160156 1488.648438 1527.789062 C 1560.988281 1474.890625 1650.949219 1395.480469 1763.699219 1285.039062 L 1766.421875 1282.378906 C 1876.648438 1174.390625 2001.601562 1052 2096.539062 925.324219 C 2208.398438 776.082031 2262.78125 641.914062 2262.78125 515.171875 C 2262.78125 460.121094 2255.578125 407.140625 2241.398438 357.699219" fill="#fbfbfb"/></g><g id="change1_3"><path d="M 437.503906 836.230469 C 444 836.230469 450.589844 834.644531 456.6875 831.304688 C 476.0625 820.6875 483.164062 796.378906 472.550781 777.003906 C 421.714844 684.203125 395.9375 596.109375 395.9375 515.171875 C 395.9375 328.941406 495.652344 180 662.679688 116.75 C 846.21875 47.238281 1057.800781 100.328125 1189.261719 248.851562 C 1254.109375 324.339844 1313.550781 409.398438 1371.03125 491.660156 C 1436.339844 585.128906 1498.019531 673.410156 1567.011719 748.804688 C 1604.839844 790.148438 1641.238281 823.585938 1678.28125 851.027344 C 1720.609375 882.386719 1762.78125 905.257812 1807.199219 920.941406 C 1811.609375 922.496094 1816.101562 923.234375 1820.519531 923.234375 C 1837 923.234375 1852.441406 912.96875 1858.238281 896.542969 C 1865.589844 875.710938 1854.671875 852.859375 1833.839844 845.507812 C 1677.21875 790.207031 1560.351562 622.933594 1436.609375 445.839844 C 1377.929688 361.871094 1317.269531 275.039062 1249.710938 196.449219 C 1249.648438 196.390625 1249.589844 196.320312 1249.53125 196.261719 C 1249.46875 196.179688 1249.410156 196.109375 1249.351562 196.03125 C 1171.078125 107.53125 1069.320312 46.929688 955.050781 20.808594 C 901.488281 8.558594 846.539062 4.210938 791.730469 7.890625 C 737.320312 11.53125 684.371094 22.988281 634.347656 41.929688 C 541.523438 77.089844 463.1875 136.511719 407.808594 213.789062 C 378.410156 254.808594 355.683594 300.589844 340.265625 349.851562 C 324.121094 401.421875 315.9375 457.039062 315.9375 515.171875 C 315.9375 609.699219 345.023438 710.722656 402.390625 815.4375 C 409.660156 828.714844 423.363281 836.230469 437.503906 836.230469" fill="#fbfbfb"/></g></g></svg>