<?xml version="1.0" encoding="UTF-8" standalone="no"?><svg xmlns="http://www.w3.org/2000/svg" xmlns:xlink="http://www.w3.org/1999/xlink" data-name="Layer 1" fill="#000000" height="821.9" preserveAspectRatio="xMidYMid meet" version="1" viewBox="-0.7 -0.4 644.5 821.9" width="644.5" zoomAndPan="magnify"><g fill="#fbfbfb" id="change1_1"><path d="M403,237.83a60.89,60.89,0,0,0,9.16,13c4.1,5.38,8.22,10.81,13.2,15.44-0.8-9.43-6.61-17.33-9.61-26.09-1.82-5.17-4.28-10.1-5.68-15.41-2.19-8.45-4.46-17-4.49-25.81,0.15-6-.34-12,0.42-18,0.35-7,2.49-13.64,4.55-20.25,3.27-8.52,6.62-17.31,13-24.09,1.9-2.09,4-4.32,6.88-4.91,7.92-1.85,16.33-2.67,23.48-6.89,5.93-3,10.84-7.79,17.28-9.79,9.61-3.29,19.68-5.67,29.89-5.8l0.87-.59a114.44,114.44,0,0,1,36.11,4.52c9.92,2.11,18.49,7.75,27.17,12.72,9.57,5.44,16.36,14.93,19.89,25.23a63.23,63.23,0,0,0,4.28,9.9c1.91-5.57.65-11.53-.34-17.15-1.6-6.2-3.25-12.62-7.12-17.85-4.4-6.46-8.7-13.14-14.52-18.43-4.12-2.84-7.47-6.61-11.52-9.54C545.46,91,533.53,86.34,521.49,82.66A128.2,128.2,0,0,0,488,79.78c-2.36.51-4.74,0.81-7.1,1.27-14.06,1.49-27.38,8.46-37.18,18.58-2.76,4.38-5.75,9-6.25,14.25-0.39,2-3,1.28-4.48,1.48-10-.59-18.68,5.57-25.93,11.74-5.3,4.27-8.32,10.51-11.78,16.21-3.88,6.36-6.13,13.53-8.22,20.63a105,105,0,0,0,.15,35.77A138.77,138.77,0,0,0,403,237.83ZM461.4,113.49a54.85,54.85,0,0,1-14.31,4.7,73.78,73.78,0,0,0-9.16.89l-1.17,0C444.67,116.08,453.08,114.78,461.4,113.49Z" transform="translate(-187.66 -79.64)"/><path d="M436.27,190.07c0.13-.48.37-1.43,0.5-1.91,3.21-9.25,8.41-18.07,16.27-24.1a22.87,22.87,0,0,1,13.9-4.33c12-.11,24,0.49,35.93-1.08,10.43-.56,20.66-3.25,31.12-3.12a71.68,71.68,0,0,1,19.89,4.37c7.74,3.84,13.81,10.07,19.5,16.42,0.33-2.43,1.41-4.93.64-7.39-1.39-5-3.24-10.19-7.43-13.55-4.82-3.9-8.91-9.08-15.08-10.88-6.17-2.87-13-3.06-19.54-4.66-12-1.24-24,.27-36-1.06-11.37-.32-22.71-2.25-34.1-1-8.64,1.44-17.41,4.24-24.35,9.77-3.72,3.36-6.18,7.82-9,11.93-3,4.17-3.28,9.48-4.79,14.25-1.58,5-1.28,10.33-1.82,15.51-0.88,8.29.26,16.59,1.22,24.81,1.75,14.78,6.54,28.91,10,43.31,1-8.07.17-16.24,0.18-24.35,0.08-9.05-.35-18.12.5-27.14C434.57,200.59,434.08,195.06,436.27,190.07Z" transform="translate(-187.66 -79.64)"/><path d="M577.3,215c-0.75,10.36-2.25,20.66-4,30.89-2.15,6.72-3,13.85-6.1,20.25-3.94,8.78-8,17.61-13.49,25.53-8.76,10.88-19.22,20.8-31.9,26.91a68.3,68.3,0,0,1-23.12,5.58c-15.69-.55-30.24-8-42.24-17.75-4.87-4.06-8.57-9.33-13.61-13.17,0.49,4.06,3.52,7,6.18,9.76a76.36,76.36,0,0,0,31.5,24.51c6.38,2.83,13.39,3.67,20.24,4.57a52.55,52.55,0,0,1,7.31-.67,68,68,0,0,0,29.5-10.45c17.6-9.77,28.92-27.6,36.29-45.81,2.8-10.81,4.87-21.91,4.62-33.12C578.27,233,578.73,223.93,577.3,215Z" transform="translate(-187.66 -79.64)"/><path d="M420.25,265.74a15.86,15.86,0,0,0,5.86,6.56A14.45,14.45,0,0,0,420.25,265.74Z" transform="translate(-187.66 -79.64)"/><path d="M415.43,434.46a93.36,93.36,0,0,0,21.33-22.82c3.08-3.43,5-7.61,7.36-11.5,3.11-3.43,4.39-7.91,6.06-12.11,0.66,10.31.64,20.79-1.78,30.89-1.58,5.62-2.11,11.44-3.24,17.15a90,90,0,0,0-4.1,12.77c2.23-6.24,6.78-11.22,9.64-17.15,6.36-13,11.75-27.06,11-41.74l0.63-.85a118.91,118.91,0,0,0-1.39-20c-2.27-5.94-2.34-12.45-4.8-18.31C454.48,346.6,454,342,451.91,338c-3.62-7.19-5.81-15-10.16-21.86C435,305.11,428.93,293.38,426,280.66l-1.45-.4c-0.94,5.2-2.32,10.39-2.11,15.71,0,13.67,4.19,26.8,7.11,40,1.59,8,4.65,15.81,4.88,24.08,0.35,11.33-.2,22.84-3.35,33.79a43.43,43.43,0,0,1-7.1,15.36l1.29-2.57c1.67-6.17,3.95-12.27,4.13-18.73,0.27-8.47.48-17-1.13-25.4-1.15-7.08-1.72-14.32-3.94-21.16-2-4.35-2.42-9.21-4.22-13.63-2.33-5.33-3.3-11.11-5.16-16.61-1.83-7.89-2.61-16-3.8-24-0.92-6.26-.29-12.61-0.57-18.91l-1.45.52c-0.75,1.1-1.5,2.19-2.27,3.27-3.15,13.24-7,26.42-7.73,40.1-1.49,9.42,1,18.73,3.55,27.72,5.7,18.43,10.14,37.83,7.92,57.2-0.24,8-2.58,15.76-5,23.37-2,6.27-5.75,11.72-8.84,17.46-4.1,7.45-10.62,13-15.78,19.7,5.41-2,9.87-5.75,14.8-8.64C403,444.94,408.46,438.71,415.43,434.46Z" transform="translate(-187.66 -79.64)"/><path d="M545.6,329.92c0.05,5.43.17,11.41,3.54,16,3.52,4.77,8.67,9.19,15,8.87,4.79,1,9.55-.93,14.36-0.14-5.3-1.08-10.15-3.58-15.28-5.22-2-1.92-4.48-3.38-6.17-5.6-1.36-2.22-2.29-4.67-3.46-7a39.81,39.81,0,0,1,1.21-9.15l1.57-1c0.12-1.53.26-3,.4-4.58l-1.45,0c0.14,1.61.27,3.23,0.38,4.85-3.66-.65-1.88-4.71-1.48-7C550.72,322.7,546.64,325.24,545.6,329.92Z" transform="translate(-187.66 -79.64)"/><path d="M572.8,368.56c0.87-.71,1.75-1.4,2.64-2.09,0.14-1.23.3-2.46,0.46-3.68-1.42-.19-2.83-0.35-4.22-0.59l-1.44-.36a20.37,20.37,0,0,0-8,.61c0,1.3.11,2.62,0.18,3.93h3c-2.41,3.33-4.24,7-6.75,10.29-4,5.07-8.37,9.84-11.49,15.5-4.09,8.62-9,16.86-12.24,25.9-6.48,19.06-11.29,38.6-17.09,57.86-3.74,13.23-10.65,25.22-18.34,36.5-4.12,4.55-8,9.3-12.63,13.41-19.09,14.79-43.48,23.9-67.83,21.45-7.06-.77-14.57-2.45-19.88-7.48-4.25-5.16-4.37-12.5-2.56-18.66,1-7.69,4.86-14.5,8.25-21.34,4.21-8,8.52-15.91,13.2-23.62,4.21-7.5,7.67-15.38,11.39-23.12,3.27-9.13,6.28-18.46,7.2-28.17-1.84,3.55-3.19,7.32-4.77,11-5.21,10.28-10.92,20.3-16.84,30.18-9.43,17.1-21.11,33-29.15,50.8-1.41,4.46-3.06,8.9-3.76,13.56-1,7.78-.26,16.43,4.5,22.93,8.31,9.46,20.94,14.35,33.41,14.4,18.2,1,35.92-4.75,52.24-12.29,6-2.88,12.3-5.45,17.32-9.95,4.78-4.18,10.16-7.72,14.37-12.53,7.45-7.71,12.2-17.42,17.06-26.85,3.67-9.75,7.29-19.58,9.31-29.83l0.94,0.38c0.23-1.58.5-3.12,0.83-4.67s0.7-3.31,1.1-5c1-7.83,3.6-15.32,4.85-23.1,0.77-5.56,3.24-10.66,4.43-16.12,2.87-8.46,5.07-17.21,9.07-25.23,4.62-7.13,6.76-15.51,11.23-22.73A36.17,36.17,0,0,1,572.8,368.56Z" transform="translate(-187.66 -79.64)"/><path d="M828.9,645.86c-1-4.66-2-9.32-2.86-14-3.41-15.89-8.77-31.28-14.61-46.42-4.69-14-10-27.67-15.55-41.31-5.41-10.28-9.78-21.06-14.48-31.67-3-6.23-7-11.82-10.1-18a156.5,156.5,0,0,0-13-22.85c-3.34-5.16-5.46-11.06-9.56-15.7-4.37-7.41-9.87-14.06-14.15-21.54-10.09-14.1-20-28.47-32.09-41a66.93,66.93,0,0,0-26.69-19.15A95.13,95.13,0,0,0,662.94,372c-7.21-1.09-14.35,1-21.47,1.89-10.36,2.82-20.52,7-29.28,13.32-4.27,3.2-8.92,6.06-12.28,10.27,8.05-2.3,14.67-8.12,23-9.52,6.54-1.79,13.34-1.57,20-2.1,9.83,0.58,20.31.74,29,5.93,11,6.12,18.58,16.41,26.07,26.17,4.2,6.08,8.36,12.2,13,18,5.52,9.39,12.59,17.79,17.78,27.38,1.28,2.21,2.93,4.19,4.29,6.37,6,10.83,13.59,20.71,19.72,31.48,4.52,8.42,10,16.28,14.14,24.92,3.51,7,7.54,13.77,11,20.81,5.49,11.78,10,24,15.06,36,5.18,11.94,8.4,24.57,12.16,37,2.62,10.33,5.38,20.67,6.21,31.34,1.74,10.87,1.17,21.9,1.24,32.86-0.13,6,.29,12.09-0.74,18-1.2,7.29-1.25,14.72-2.6,22-2.29,13.65-4,27.39-7,40.92-1.89,13-4.39,25.92-5.58,39a125.23,125.23,0,0,0,.8,17.43,11.46,11.46,0,0,0,3.22-4.51c3.92-10.64,5.78-21.86,8.83-32.75,4.5-16.34,10.54-32.3,13.48-49,2.73-9.83,3.61-20,5.59-30C831,685.43,831.54,665.49,828.9,645.86Z" transform="translate(-187.66 -79.64)"/><path d="M657.32,554.29c6.79-6.9,12.34-15.83,13.47-25.58-4.66,3.34-7.9,8.18-12.26,11.85-4.61,4.74-9.7,9-14.58,13.39a38,38,0,0,1-16.84,6.36,51.08,51.08,0,0,1-31.33-13c-2.84-3.11-6.12-5.78-9-8.84-7.63-10.45-13-22.34-17-34.6-1.6-5.52-3.67-11-4.23-16.72s-2.29-11.33-2.22-17.11c0-3.07,0-6.13-.28-9.18,0.55-6.56-.14-13.19,1.07-19.7,1.42-10.88,3.15-21.79,6.7-32.22,3.82-9.61,8.54-18.83,13.09-28.11a33.1,33.1,0,0,0-6.15,7.93c-4.33,8.37-9.54,16.37-12.48,25.39s-5.76,17.91-7.2,27.19c-3.93,29.77-.51,61.18,13.61,88A125.93,125.93,0,0,0,586,548c11.86,11,27.54,19,44,18.66C640.38,566.55,650.12,561.54,657.32,554.29Z" transform="translate(-187.66 -79.64)"/><path d="M206.77,450.88c2.46-3.55,6.1-6,9.15-9,6.52-5.42,13.55-10.39,21.53-13.42,21.3-10.77,46.38-14.14,69.64-8.5,9.46,2.66,18.31,7.07,26.78,12,10.51,6.16,19.11,15,26.61,24.52,4.47,6.77,9.69,13.44,11.36,21.57,0.12-5.5-1.51-10.74-2.16-16.14-0.5-5.32-3-10.14-4.53-15.18-2.91-8.26-9.19-14.53-14.91-20.9-7.46-9.19-18.38-14.61-29.12-19-10.21-5.18-21.91-5.4-33.08-6.1-11.2.54-22.44,2.16-32.88,6.4-6.71,3.15-13.8,5.74-19.77,10.25-2.86,2.21-6,4-8.65,6.52-6.6,7-14.17,13.45-18.8,22.07-1.66,3.1-3.56,6.06-5.14,9.2A26.52,26.52,0,0,0,206.77,450.88Z" transform="translate(-187.66 -79.64)"/><path d="M276,604.69c5.64,0,11.33.41,16.93-.39,6.45-1.43,12.94-2.68,19.33-4.37,0.44,5.64.83,11.4,2.94,16.71,1.76,4.49,2.54,9.29,4.17,13.82,3.55,9.88,7.9,19.44,11,29.49,0.87-13.39-.51-26.8-1.78-40.11-0.36-8.46-2.94-16.63-3.58-25.06,6.13-4,11.82-8.5,17.53-13,6.48-5.29,11.33-12.16,16.8-18.4a140.81,140.81,0,0,0,10.51-21.16A67,67,0,0,0,375.69,514c0.6-18.31-2.82-37.63-14.29-52.42-6.55-8.09-13.62-15.94-22.28-21.84-11.18-8.14-24.41-13.06-38-15.42-8.85-2.41-18.07-1.82-27.12-1.62-6.49.38-12.77,2.22-19.13,3.37-15.13,4.5-30.32,10.82-41.56,22.28-4.75,4-8.1,9.27-11.9,14.11-4.59,8.06-9.75,16.14-11.23,25.48-0.89,5.64-1.42,11.35-2.33,17-0.85,10.09.89,20.18,2.55,30.11,0.73,5.6,3.76,10.49,6,15.57,7.23,16.77,20.56,30.26,35.69,40.16,8.14,4,16.26,8.08,24.69,11.44C263.3,602.56,269.54,604.6,276,604.69ZM259.54,497.44A35.8,35.8,0,0,1,275.66,487c13.71-3.85,30.69,2.57,35.78,16.52,8.65,16.41-2.19,39.34-20.37,43-5.86,1.78-12,.65-17.81-0.89a29.55,29.55,0,0,1-18.13-18.75C252.11,517,254.23,506.08,259.54,497.44Z" transform="translate(-187.66 -79.64)"/><path d="M753.41,595.43c-1.83-2.11-5-.49-7.39-0.83a97.89,97.89,0,0,1-7.34-10.35c-5.7-8.47-12.31-16.28-18.56-24.34-9-13-18.68-25.36-28.1-38-2.77-3.88-4.82-8.32-8.41-11.54-3.73-3.37-6.22-7.8-9.69-11.4-6.85-7.08-12.91-15.17-21.46-20.35a8.05,8.05,0,0,0-7.07.93c5.33,10.88,12.61,20.61,19.32,30.65,3.77,4.68,6.4,10.15,10.39,14.67,10.06,13.48,20.72,26.52,31.52,39.42,5.65,6,11,12.33,17.24,17.81,4.62,5.72,10.12,12.29,18.14,12.42a31.41,31.41,0,0,0,7.57,3.33c-3.28,4.22-4.19,9.59-6.06,14.46-2.4,6.26-2.41,13.09-4.29,19.49-1.25,4-.72,8.15-1.3,12.2-1,10.3-.46,20.67-0.59,31,0.23,15.22,3,30.24,6.16,45.09,1.71,7.31,2,14.92,4.67,22,2.88,11.58,5.31,23.29,9,34.65,1.31,5.61,3.43,11.11,7.11,15.62,0.21-4.51-.66-8.93-1.13-13.38-2.22-18-4.15-36-5-54.1-1-6.28-.54-12.66-1.54-18.92-2.86-28.88-2.29-58-2.31-87C754.68,611.14,753.78,603.3,753.41,595.43Z" transform="translate(-187.66 -79.64)"/><path d="M458,521.92c-0.14-5.17-.81-10.35-3.84-14.7l-3.47,1.63c-2.13,4.88-1.12,10.31-1.36,15.47a13.64,13.64,0,0,0-5.65-.9c2.32,2.94,5,5.61,7.38,8.47a7.63,7.63,0,0,0,6.07,2.85c-2.22-3.41-5.32-6.06-8.06-9,3,2.19,5.23,5.75,9.09,6.63C457.86,528.88,457.42,525.39,458,521.92Z" transform="translate(-187.66 -79.64)"/><path d="M656.69,816.54c3.44,0.22,6.81,1.31,10.29,1.12,7.7-.78,15.35-2,23-2.94,7.86,0.32,15.25-2.63,22.89-3.91,15.38-1.4,30.77-2.48,46.15-3.82-9.43-2.91-19.29-4.14-29-5.58-4.1-.57-7.83-3-12-2.71-9.16.84-18.29,2.28-26.94,5.51-8-.54-15.64-3.33-22.89-6.61-6.28-2.19-11.76-6-17.27-9.58a53.37,53.37,0,0,1-14.54-13.44,108,108,0,0,1-11.12-15.91c-5.8-11-8.52-23.38-9.46-35.72-0.09-5.14.71-10.23,0.72-15.36a197.88,197.88,0,0,1,13.28-52.48c6.71-19,13.17-38,20.87-56.66,2.54-6.06,4-12.48,6.19-18.65,1.35-5.19,3.79-10,5-15.24a27.61,27.61,0,0,0-5.54,5.78c-5.81,8.84-11.89,17.54-17.06,26.78-7.42,13.61-15.93,26.63-22.15,40.88-6.75,16-13.57,32.29-16.21,49.61a114.25,114.25,0,0,0,3.47,57.92,90.34,90.34,0,0,0,23.41,38.68c12.06,9.94,24.25,20.26,39,26.09C663.37,812.39,660,814.39,656.69,816.54Z" transform="translate(-187.66 -79.64)"/><path d="M376.1,613.89c-3.41-3.9-5.41-8.74-8.35-13l-1.35-1.2c1.2,4.19,2.54,8.36,4,12.47A90.45,90.45,0,0,0,379,627c3.29,4.58,6.41,9.43,10.83,13,4.08,3.41,7.93,7.11,12.27,10.21-1.46,1.26-2.92,2.52-4.33,3.82-3.24,3.3-6.64,6.44-9.8,9.8-3.88,5.39-7.22,11.25-12,15.93-5.87,6.82-11.44,14-17.89,20.25-2.15,1.83-4.52,3.44-6.31,5.65-6.49,7.67-15,13.24-23.23,18.77-7.23,5.06-16.2,6.27-24.59,8.25a49.68,49.68,0,0,0-4.18-10.54c-5.32-11-10.92-21.85-14.58-33.5a291.1,291.1,0,0,1-12.46-35.5c-2.24-6.72-3-13.85-5.7-20.42-1.66-6.84-3.74-13.6-4.89-20.54-1.74-3.09-3.36-6.24-4.82-9.45,0,2.57,0,5.15,0,7.73l-1.52.17c-0.15-2.82-.34-5.65-0.76-8.43a24.62,24.62,0,0,0-.68,5.74c0,9.34-.18,18.74,1.41,28,1.77,10,2.83,20.26,6,30,1.62,7.85,4.44,15.37,7.42,22.79,7,19.34,18.57,37.3,34.48,50.49,2,1.13,4,3.72,6.52,2.47,5.33-2.33,11.26-.8,16.77-2.35,14.09-3,24.72-13.38,36-21.6,6.81-6.25,12.44-13.64,18.77-20.35,2.74-3.6,5-7.52,8.16-10.85,8.54-9.81,13.39-22,19.86-33.13a34.22,34.22,0,0,0,5.51,1.92c12.89,1.38,26,2,38.89-.13-16.83-5.72-34.11-10.45-50.11-18.29A112.91,112.91,0,0,1,376.1,613.89Z" transform="translate(-187.66 -79.64)"/><path d="M755.17,845.37c-11.34,5.16-22.83,10.07-34.62,14.12-7.16,2.77-13.26,7.52-19.89,11.29a106,106,0,0,0-11,7.83c-3,2.31-4.24,6-6,9.16,0-1.28,0-2.55,0-3.8,1.41-6.73,5.29-12.57,9.9-17.53,7.6-8.78,19.61-11.63,27.73-19.85-12.6-1.4-23.68,6.12-35.71,8.29A73,73,0,0,1,656,864.42c0.52-.26,1.56-0.78,2.09-1a23.86,23.86,0,0,1,2.88-4.58c9-1.56,17.29-5.8,25.65-9.34,4.34-3.13,8.57-6.48,13.38-8.9a84.11,84.11,0,0,0,8.25-5.9l-3.33-.94c-13.24,3.35-26.38,7.09-39.31,11.51-4.57,1.88-9.06,3.94-13.63,5.8l4.08,0.59c-3.91,4.83-7.83,10.16-8.76,16.47-0.76,3.75,3.52,5,6,6.53,5.83,3.43,13.07,2.21,19-.23A67,67,0,0,1,687,870.35c-1.6,4.66-4.12,9-5.35,13.77-0.93,5.6-.44,11.33,0,17a37.85,37.85,0,0,0,9.82-6.64c10.84-10.28,23.3-19.27,37.32-24.6,8-2.69,16.42-4.06,24.09-7.68,11.66-4.31,21-12.88,29.66-21.48,5.42-6.67,11.63-13.45,13.38-22.13-6.87,1.4-11.37,7.09-17.06,10.65C770.85,834.42,763.46,840.59,755.17,845.37Z" transform="translate(-187.66 -79.64)"/><path d="M675.49,836.75c8.11-3.55,16.28-7.37,23.12-13.12a260.32,260.32,0,0,0-29.52-2.18c-6.27,0-12.45-1.28-18.73-1.3-5.33,1.42-9.57,5.09-14,8.2,1.84,3.86,5.71,6,9.82,6.59C655.84,836.59,665.7,838.25,675.49,836.75Z" transform="translate(-187.66 -79.64)"/></g></svg>