<?xml version="1.0" encoding="UTF-8" standalone="no"?><svg xmlns="http://www.w3.org/2000/svg" xmlns:xlink="http://www.w3.org/1999/xlink" fill="#fbfbfb" height="122.6" preserveAspectRatio="xMidYMid meet" version="1" viewBox="1.0 4.3 126.0 122.6" width="126" zoomAndPan="magnify"><g id="change1_1"><path d="M 61.460938 7.308594 C 60.976562 7.308594 60.671875 7.574219 60.535156 7.730469 C 60.398438 7.890625 60.179688 8.226562 60.246094 8.707031 L 61.335938 18.261719 C 61.414062 18.824219 61.9375 19.277344 62.542969 19.277344 L 63.457031 19.277344 C 64.0625 19.277344 64.585938 18.824219 64.667969 18.222656 L 65.746094 8.746094 C 65.820312 8.226562 65.601562 7.890625 65.464844 7.730469 C 65.328125 7.574219 65.023438 7.308594 64.539062 7.308594 Z M 63.457031 22.277344 L 62.542969 22.277344 C 60.453125 22.277344 58.652344 20.714844 58.359375 18.644531 L 57.273438 9.085938 C 57.105469 7.914062 57.46875 6.6875 58.273438 5.765625 C 59.074219 4.839844 60.238281 4.308594 61.460938 4.308594 L 64.539062 4.308594 C 65.761719 4.308594 66.925781 4.839844 67.726562 5.765625 C 68.53125 6.6875 68.894531 7.914062 68.722656 9.125 L 67.644531 18.601562 C 67.347656 20.714844 65.546875 22.277344 63.457031 22.277344" fill="inherit"/><path d="M 38.066406 15.800781 C 37.878906 15.800781 37.648438 15.84375 37.417969 15.992188 L 34.816406 17.636719 C 34.40625 17.894531 34.292969 18.28125 34.261719 18.488281 C 34.230469 18.691406 34.222656 19.09375 34.539062 19.464844 L 40.570312 26.960938 C 40.933594 27.390625 41.613281 27.492188 42.132812 27.171875 L 42.902344 26.683594 C 42.902344 26.683594 42.902344 26.679688 42.902344 26.679688 C 43.414062 26.355469 43.613281 25.695312 43.363281 25.144531 L 39.207031 16.558594 C 38.988281 16.078125 38.625 15.910156 38.425781 15.851562 C 38.339844 15.824219 38.214844 15.800781 38.066406 15.800781 Z M 41.484375 30.355469 C 40.277344 30.355469 39.082031 29.839844 38.257812 28.871094 L 32.226562 21.378906 C 31.460938 20.476562 31.109375 19.246094 31.292969 18.035156 C 31.480469 16.824219 32.179688 15.757812 33.214844 15.101562 L 35.816406 13.453125 C 36.847656 12.800781 38.113281 12.628906 39.285156 12.980469 C 40.460938 13.328125 41.417969 14.171875 41.921875 15.285156 L 46.082031 23.871094 C 46.960938 25.816406 46.273438 28.097656 44.507812 29.214844 L 43.734375 29.703125 C 43.042969 30.144531 42.261719 30.355469 41.484375 30.355469" fill="inherit"/><path d="M 87.933594 15.800781 C 87.785156 15.800781 87.660156 15.824219 87.574219 15.851562 C 87.375 15.910156 87.011719 16.078125 86.808594 16.523438 L 82.617188 25.179688 C 82.386719 25.695312 82.585938 26.355469 83.097656 26.679688 C 83.097656 26.679688 83.097656 26.683594 83.097656 26.683594 L 83.871094 27.171875 C 84.382812 27.496094 85.066406 27.390625 85.457031 26.929688 L 91.433594 19.496094 C 91.777344 19.09375 91.769531 18.691406 91.738281 18.488281 C 91.707031 18.28125 91.59375 17.894531 91.183594 17.636719 L 88.582031 15.992188 C 88.351562 15.84375 88.121094 15.800781 87.933594 15.800781 Z M 84.507812 30.351562 C 83.730469 30.351562 82.953125 30.140625 82.265625 29.707031 L 81.492188 29.214844 C 79.726562 28.097656 79.039062 25.816406 79.902344 23.90625 L 84.09375 15.25 C 84.582031 14.171875 85.539062 13.328125 86.714844 12.980469 C 87.890625 12.628906 89.152344 12.800781 90.183594 13.453125 L 92.785156 15.101562 C 93.820312 15.757812 94.519531 16.824219 94.707031 18.035156 C 94.890625 19.246094 94.539062 20.476562 93.746094 21.40625 L 87.769531 28.839844 C 86.925781 29.832031 85.71875 30.351562 84.507812 30.351562" fill="inherit"/><path d="M 124 57.492188 C 124 59.402344 122.449219 60.953125 120.539062 60.953125 L 119.0625 60.953125 L 119.0625 52.523438 L 120.539062 52.523438 C 122.449219 52.523438 124 54.074219 124 55.980469 Z M 116.0625 63.65625 C 116.0625 66.589844 113.996094 69.046875 111.246094 69.65625 C 111.253906 69.480469 111.269531 69.304688 111.269531 69.128906 L 111.269531 44.347656 C 111.269531 44.167969 111.253906 43.996094 111.246094 43.816406 C 113.996094 44.425781 116.0625 46.882812 116.0625 49.816406 Z M 108.269531 69.128906 C 108.269531 73.992188 104.3125 77.949219 99.453125 77.949219 C 94.589844 77.949219 90.632812 73.992188 90.632812 69.128906 L 90.632812 44.347656 C 90.632812 39.484375 94.589844 35.527344 99.453125 35.527344 C 104.3125 35.527344 108.269531 39.484375 108.269531 44.347656 Z M 87.632812 64.902344 C 87.191406 63.988281 86.699219 63.097656 86.101562 62.253906 C 85.980469 62.074219 84.648438 60.066406 82.976562 57.632812 C 83.21875 56.984375 83.363281 56.289062 83.363281 55.558594 L 83.363281 48.695312 L 87.632812 48.695312 Z M 86.070312 75.746094 C 85.25 79.273438 83.652344 82.761719 81.265625 86.191406 C 78.117188 90.707031 76.386719 93.191406 76.386719 99.039062 L 76.386719 122.371094 C 76.386719 123.246094 75.671875 123.957031 74.800781 123.957031 L 50.738281 123.957031 C 49.863281 123.957031 49.152344 123.246094 49.152344 122.371094 L 49.152344 100.488281 C 49.152344 95.261719 47.691406 89.851562 46.148438 84.121094 C 44.703125 78.769531 43.242188 73.253906 43.003906 67.808594 L 67.792969 67.808594 C 62.5625 69.519531 59.527344 74.785156 58.484375 78.023438 C 58.230469 78.8125 58.664062 79.65625 59.457031 79.910156 C 60.246094 80.164062 61.089844 79.730469 61.34375 78.941406 C 62.320312 75.902344 65.386719 70.65625 70.671875 70.273438 C 72.007812 70.175781 73.210938 69.417969 73.886719 68.253906 C 74.570312 67.066406 74.628906 65.621094 74.035156 64.390625 C 72.371094 60.945312 70.886719 58.316406 69.609375 56.578125 C 68.535156 55.109375 67.847656 52.824219 69.460938 51.214844 C 70.214844 50.457031 71.285156 50.035156 72.355469 50.078125 C 73.246094 50.117188 74.03125 50.484375 74.566406 51.117188 C 77.03125 54.046875 83.539062 63.816406 83.628906 63.949219 C 86.105469 67.46875 86.996094 71.769531 86.070312 75.746094 Z M 41.417969 67.8125 C 41.40625 67.8125 41.398438 67.808594 41.386719 67.808594 L 41.445312 67.808594 C 41.433594 67.808594 41.425781 67.8125 41.417969 67.8125 Z M 40.367188 48.695312 L 44.46875 48.695312 L 44.46875 57.078125 C 44.46875 60.378906 47.15625 63.0625 50.457031 63.0625 C 52.375 63.0625 54.082031 62.152344 55.175781 60.746094 C 56.265625 61.84375 57.769531 62.523438 59.429688 62.523438 C 61.464844 62.523438 63.261719 61.5 64.34375 59.945312 C 65.414062 60.933594 66.835938 61.546875 68.402344 61.546875 C 68.660156 61.546875 68.910156 61.527344 69.160156 61.492188 C 69.710938 62.472656 70.292969 63.589844 70.898438 64.808594 L 40.367188 64.808594 Z M 47.46875 46.324219 C 47.46875 44.675781 48.808594 43.335938 50.457031 43.335938 C 52.101562 43.335938 53.445312 44.675781 53.445312 46.324219 L 53.445312 57.078125 C 53.445312 58.722656 52.101562 60.0625 50.457031 60.0625 C 48.808594 60.0625 47.46875 58.722656 47.46875 57.078125 Z M 56.445312 42.746094 C 56.445312 41.101562 57.78125 39.761719 59.429688 39.761719 C 61.078125 39.761719 62.417969 41.101562 62.417969 42.746094 L 62.417969 56.535156 C 62.417969 58.183594 61.078125 59.523438 59.429688 59.523438 C 57.78125 59.523438 56.445312 58.183594 56.445312 56.535156 Z M 65.417969 41.230469 C 65.417969 39.582031 66.757812 38.242188 68.402344 38.242188 C 70.050781 38.242188 71.390625 39.582031 71.390625 41.230469 L 71.390625 47.128906 C 69.863281 47.308594 68.4375 47.992188 67.339844 49.09375 C 64.972656 51.460938 64.898438 55.125 67.125 58.246094 C 66.117188 57.765625 65.417969 56.746094 65.417969 55.558594 Z M 74.390625 41.769531 C 74.390625 40.125 75.730469 38.785156 77.378906 38.785156 C 79.023438 38.785156 80.363281 40.125 80.363281 41.769531 L 80.363281 53.878906 C 79.015625 51.972656 77.722656 50.210938 76.859375 49.183594 C 76.195312 48.394531 75.347656 47.8125 74.390625 47.460938 Z M 37.367188 69.128906 C 37.367188 73.992188 33.410156 77.949219 28.546875 77.949219 C 23.683594 77.949219 19.726562 73.992188 19.726562 69.128906 L 19.726562 44.347656 C 19.726562 39.484375 23.683594 35.527344 28.546875 35.527344 C 33.410156 35.527344 37.367188 39.484375 37.367188 44.347656 Z M 11.9375 63.65625 L 11.9375 49.816406 C 11.9375 46.882812 14.003906 44.433594 16.753906 43.824219 C 16.746094 44 16.726562 44.171875 16.726562 44.347656 L 16.726562 69.128906 C 16.726562 69.304688 16.746094 69.480469 16.753906 69.65625 C 14.003906 69.046875 11.9375 66.589844 11.9375 63.65625 Z M 8.9375 60.953125 L 7.457031 60.953125 C 5.550781 60.953125 4 59.402344 4 57.492188 L 4 55.980469 C 4 54.074219 5.550781 52.523438 7.457031 52.523438 L 8.9375 52.523438 Z M 120.539062 49.523438 L 119.046875 49.523438 C 118.898438 44.875 115.273438 41.097656 110.691406 40.707031 C 109.152344 35.96875 104.699219 32.527344 99.453125 32.527344 C 92.933594 32.527344 87.632812 37.828125 87.632812 44.347656 L 87.632812 45.695312 L 83.363281 45.695312 L 83.363281 41.769531 C 83.363281 38.46875 80.679688 35.785156 77.378906 35.785156 C 75.714844 35.785156 74.210938 36.464844 73.125 37.5625 C 72.03125 36.15625 70.324219 35.242188 68.402344 35.242188 C 66.222656 35.242188 64.320312 36.417969 63.273438 38.164062 C 62.230469 37.289062 60.890625 36.761719 59.429688 36.761719 C 56.644531 36.761719 54.300781 38.675781 53.640625 41.261719 C 52.714844 40.679688 51.625 40.335938 50.457031 40.335938 C 47.367188 40.335938 44.820312 42.6875 44.503906 45.695312 L 40.367188 45.695312 L 40.367188 44.347656 C 40.367188 37.828125 35.066406 32.527344 28.546875 32.527344 C 23.292969 32.527344 18.835938 35.972656 17.300781 40.722656 C 12.722656 41.117188 9.101562 44.878906 8.953125 49.523438 L 7.457031 49.523438 C 3.898438 49.523438 1 52.417969 1 55.980469 L 1 57.492188 C 1 61.054688 3.898438 63.953125 7.457031 63.953125 L 8.953125 63.953125 C 9.101562 68.597656 12.722656 72.378906 17.308594 72.765625 C 18.847656 77.507812 23.300781 80.949219 28.546875 80.949219 C 34.488281 80.949219 39.402344 76.542969 40.230469 70.832031 C 40.765625 75.605469 42.011719 80.316406 43.25 84.90625 C 44.742188 90.433594 46.152344 95.65625 46.152344 100.488281 L 46.152344 122.371094 C 46.152344 124.898438 48.210938 126.957031 50.738281 126.957031 L 74.800781 126.957031 C 77.328125 126.957031 79.386719 124.898438 79.386719 122.371094 L 79.386719 99.039062 C 79.386719 94.136719 80.746094 92.183594 83.78125 87.828125 C 86.332031 84.164062 88.085938 80.328125 88.992188 76.425781 C 89.097656 75.96875 89.167969 75.507812 89.234375 75.042969 C 91.28125 78.570312 95.089844 80.949219 99.453125 80.949219 C 104.699219 80.949219 109.152344 77.507812 110.691406 72.765625 C 115.273438 72.378906 118.898438 68.597656 119.046875 63.953125 L 120.539062 63.953125 C 124.101562 63.953125 127 61.054688 127 57.492188 L 127 55.980469 C 127 52.417969 124.101562 49.523438 120.539062 49.523438" fill="inherit"/></g></svg>